<svg width="171" height="56" viewBox="0 0 171 56" fill="none" xmlns="http://www.w3.org/2000/svg">
<path d="M123.644 53.5027C123.632 53.4552 123.633 53.3776 123.607 53.3668C123.331 53.259 123.199 52.9991 123.018 52.7942C122.985 52.7399 122.968 52.6775 122.969 52.6141C122.957 52.4803 122.95 52.3455 122.95 52.2107C122.95 47.6913 122.95 43.1711 122.95 38.6503C122.95 38.6147 122.95 38.5791 122.95 38.5424C122.92 38.0819 123.165 37.7778 123.511 37.519C123.727 37.3604 123.917 37.1782 124.119 37.0056C124.32 36.8331 124.504 36.6767 124.698 36.5138C124.841 36.4122 124.977 36.2993 125.102 36.1763C125.277 35.9746 125.534 35.8754 125.71 35.6845C125.858 35.5292 126.026 35.3944 126.189 35.2531C126.269 35.1852 126.36 35.1313 126.442 35.0644C126.684 34.8671 126.925 34.6665 127.166 34.468C127.362 34.3073 127.568 34.1585 127.749 33.9849C128.219 33.533 128.767 33.176 129.236 32.722C129.452 32.516 129.713 32.3564 129.935 32.1515C130.358 31.7611 130.845 31.4484 131.247 31.0321C131.403 30.8714 131.625 30.7776 131.786 30.6212C132.198 30.22 132.689 29.9137 133.095 29.5028C133.25 29.3443 133.46 29.2418 133.634 29.1038C133.766 29.0014 133.888 28.8881 134.011 28.7716C134.219 28.5703 134.447 28.3897 134.69 28.2324C134.895 28.1062 135.055 27.9089 135.237 27.7493C135.42 27.5897 135.577 27.4495 135.751 27.3049C135.997 27.099 136.247 26.8984 136.493 26.6945C136.809 26.4325 137.112 26.1553 137.44 25.9094C137.871 25.5859 138.245 25.1782 138.706 24.8763C139.003 24.6811 139.245 24.4007 139.52 24.1677C139.852 23.8852 140.191 23.608 140.531 23.3341C140.935 23.0105 141.345 22.687 141.749 22.3635C141.876 22.2663 141.993 22.158 142.101 22.0399C142.341 21.7617 142.655 21.6862 143.001 21.6916C143.163 21.6947 143.323 21.7069 143.483 21.7283C143.549 21.7461 143.61 21.7753 143.666 21.8145C144.137 22.0777 144.495 22.4832 144.913 22.8121C145.252 23.0774 145.56 23.374 145.909 23.6328C146.198 23.8485 146.454 24.0998 146.725 24.336C146.896 24.4848 147.093 24.6013 147.258 24.7544C147.681 25.1448 148.176 25.4479 148.575 25.8663C148.723 26.004 148.881 26.1319 149.046 26.2491L149.734 26.811L150.299 27.278C150.604 27.5303 150.913 27.7795 151.214 28.0329C151.377 28.1709 151.556 28.1558 151.722 28.0027C151.928 27.8129 152.153 27.6393 152.369 27.4635C152.607 27.2629 152.845 27.0612 153.085 26.8617C153.184 26.7776 153.284 26.6956 153.386 26.6147C153.554 26.4821 153.726 26.3548 153.891 26.2189C154.056 26.0831 154.215 25.9364 154.378 25.7962C154.619 25.5913 154.861 25.3871 155.104 25.1836C155.197 25.106 155.298 25.0337 155.393 24.955C155.63 24.7609 155.868 24.5646 156.104 24.3683C156.277 24.2238 156.445 24.0739 156.619 23.9305C156.863 23.7288 157.105 23.525 157.358 23.333C157.771 23.0192 158.177 22.6859 158.562 22.3484C159.037 21.9278 159.562 21.5654 160.008 21.1103C160.149 20.9669 160.349 20.8806 160.5 20.7296C160.722 20.5158 160.958 20.3176 161.207 20.1365C161.501 19.9154 161.746 19.6242 162.043 19.4236C162.475 19.1346 162.825 18.7647 163.23 18.453C163.634 18.1413 164.044 17.8178 164.443 17.491C164.659 17.312 164.852 17.0974 165.076 16.927C165.36 16.708 165.631 16.4744 165.89 16.2271C166.112 16.02 166.38 15.8626 166.606 15.6598C167.038 15.278 167.522 14.9685 167.92 14.549C167.959 14.5146 167.989 14.4724 168.011 14.4252C168.032 14.378 168.043 14.3268 168.043 14.2751C168.049 13.7542 168.064 13.2333 168.064 12.7124C168.064 9.97242 168.064 7.23172 168.064 4.49029C168.085 4.34239 168.059 4.19189 167.991 4.05891C167.835 4.18833 167.687 4.30696 167.543 4.4299C167.363 4.58196 167.188 4.74049 167.003 4.8904C166.857 5.01334 166.701 5.12766 166.552 5.24952C166.359 5.40913 166.17 5.57306 165.978 5.7359C165.811 5.87826 165.646 6.02277 165.476 6.16728C165.239 6.36356 164.997 6.55445 164.762 6.75181C164.385 7.07534 164.014 7.39888 163.633 7.71486C163.525 7.80761 163.383 7.868 163.27 7.95859C163.118 8.07938 162.982 8.21742 162.838 8.34252C162.656 8.49674 162.468 8.64341 162.286 8.79547C162.13 8.92597 161.978 9.06293 161.821 9.19234C161.638 9.34333 161.485 9.52343 161.268 9.64098C161.099 9.73157 160.966 9.88902 160.815 10.0152C160.63 10.1705 160.442 10.3226 160.256 10.4779C160.103 10.6073 159.955 10.7421 159.8 10.8693C159.618 11.0225 159.43 11.1691 159.247 11.3212C159.064 11.4733 158.858 11.6447 158.664 11.813C158.47 11.9812 158.293 12.129 158.106 12.2853C157.867 12.4838 157.628 12.6833 157.387 12.8785C156.926 13.2527 156.434 13.5946 156.011 14.0066C155.654 14.3527 155.228 14.6073 154.884 14.9696C154.626 15.2392 154.299 15.4441 154.006 15.6803C153.86 15.7968 153.719 15.9197 153.574 16.0405C153.393 16.1958 153.214 16.3543 153.035 16.5064C152.879 16.6347 152.712 16.7544 152.56 16.8817C152.445 16.9734 152.336 17.0704 152.224 17.1653C151.999 17.3573 151.774 17.5503 151.547 17.7402C151.362 17.8933 151.174 18.0421 150.987 18.1953C150.859 18.3031 150.733 18.411 150.604 18.5188L150.187 18.8661C149.962 19.0559 149.738 19.2478 149.512 19.4366C149.413 19.5196 149.308 19.5983 149.208 19.6803C148.977 19.8679 148.744 20.0524 148.519 20.2465C148.231 20.4945 147.911 20.7081 147.663 21.0014C147.471 21.0337 147.349 21.2085 147.144 21.2343C146.899 21.2662 146.652 21.2662 146.407 21.2343C146.229 21.2117 146.123 21.0952 146.003 21.0186C145.764 20.8411 145.536 20.6492 145.321 20.4438C145.162 20.3112 144.997 20.1872 144.836 20.0577C144.606 19.8723 144.377 19.6846 144.15 19.497C143.97 19.347 143.793 19.1928 143.611 19.0429C143.463 18.92 143.311 18.8024 143.164 18.6784C142.98 18.522 142.8 18.3549 142.614 18.2039C142.46 18.0756 142.299 17.9569 142.144 17.8307C142.036 17.738 141.922 17.6399 141.81 17.546C141.576 17.3476 141.343 17.1502 141.108 16.954C140.93 16.8051 140.739 16.6703 140.568 16.5107C140.205 16.1624 139.772 15.8992 139.418 15.5401C139.203 15.3484 138.978 15.1684 138.744 15.0009C138.521 14.8186 138.305 14.6288 138.084 14.4433C137.966 14.3441 137.844 14.2492 137.725 14.15C137.51 13.9667 137.294 13.7801 137.071 13.5978C136.972 13.5148 136.863 13.4414 136.765 13.3584C136.529 13.16 136.3 12.9572 136.066 12.7599C135.882 12.6067 135.695 12.459 135.51 12.3069C135.382 12.1991 135.257 12.0912 135.129 11.9834C134.983 11.8637 134.834 11.7494 134.691 11.6275C134.475 11.4398 134.259 11.2468 134.037 11.0591C133.929 10.9696 133.821 10.8909 133.714 10.8036C133.487 10.6148 133.263 10.4218 133.037 10.233C132.93 10.1435 132.822 10.0605 132.714 9.97099C132.482 9.77794 132.261 9.57088 132.018 9.39186C131.643 9.11577 131.324 8.77175 130.953 8.49782C130.604 8.23899 130.293 7.9435 129.967 7.66202C129.798 7.51643 129.595 7.40643 129.437 7.25005C129.031 6.84887 128.523 6.56847 128.142 6.1414C127.992 5.9989 127.83 5.86871 127.658 5.75208C127.435 5.57162 127.213 5.39188 126.993 5.21286C126.885 5.12442 126.789 5.01981 126.669 4.94324C126.383 4.75128 126.156 4.49029 125.874 4.29617C125.767 4.2196 125.659 4.1344 125.506 4.01254C125.496 4.18185 125.485 4.28431 125.485 4.38676C125.485 5.86136 125.485 7.33525 125.485 8.80841C125.485 10.507 125.493 12.2055 125.485 13.903C125.479 13.9911 125.497 14.0792 125.538 14.1574C125.579 14.2357 125.641 14.301 125.717 14.3463C125.941 14.5005 126.135 14.6978 126.345 14.8736C126.528 15.0289 126.72 15.1745 126.901 15.333C127.332 15.7127 127.813 16.0308 128.222 16.4395C128.381 16.597 128.583 16.7081 128.761 16.8504C129.078 17.1114 129.387 17.3897 129.706 17.6442C129.948 17.8405 130.203 18.0195 130.448 18.2114C130.588 18.3193 130.719 18.4422 130.854 18.5565C131.112 18.7722 131.372 18.9879 131.631 19.2036C131.999 19.5092 132.368 19.8137 132.737 20.1171C132.913 20.2637 133.092 20.4061 133.269 20.5484C133.398 20.6563 133.522 20.7641 133.652 20.872C133.84 21.023 134.034 21.1675 134.219 21.3206C134.487 21.5363 134.744 21.7757 135.016 21.9893C135.188 22.1002 135.341 22.2395 135.466 22.4012C135.682 22.7345 135.8 23.0979 135.706 23.4797C135.656 23.6744 135.565 23.856 135.437 24.0114C135.31 24.1669 135.15 24.2924 134.969 24.3791C134.912 24.4046 134.85 24.4189 134.788 24.4212C134.69 24.4309 134.588 24.4212 134.491 24.4352C134.068 24.5021 133.727 24.3004 133.448 24.0405C133.224 23.8313 132.978 23.6501 132.751 23.4473C132.523 23.2446 132.264 23.0472 132.02 22.8477C131.661 22.5493 131.299 22.2502 130.934 21.9504C130.672 21.7347 130.417 21.505 130.15 21.2915C129.75 20.968 129.341 20.6638 128.94 20.3435C128.725 20.1731 128.53 19.9844 128.322 19.8043C128.236 19.731 128.141 19.6684 128.053 19.5972C127.889 19.4668 127.729 19.333 127.566 19.2004L127.012 18.7377C126.762 18.5296 126.511 18.3247 126.257 18.1144C125.979 17.8771 125.718 17.6107 125.422 17.408C125.234 17.2886 125.057 17.1521 124.894 17.0003C124.541 16.6531 124.098 16.4158 123.763 16.0448C123.621 15.8885 123.405 15.8065 123.262 15.6361C123.081 15.4403 122.973 15.1876 122.957 14.9211C122.957 14.8316 122.957 14.741 122.957 14.6515V1.36709C122.96 1.3222 122.96 1.27718 122.957 1.23229C122.906 0.837575 123.114 0.538844 123.366 0.289721C123.518 0.139816 123.711 -0.0176376 123.968 0.00932368C124.013 0.00983361 124.058 0.00767291 124.102 0.00285296C124.672 -0.0197945 124.884 0.0880507 125.329 0.482764C125.624 0.74375 125.907 1.02199 126.255 1.22797C126.471 1.35847 126.641 1.58279 126.848 1.7424C127.336 2.11554 127.783 2.5329 128.265 2.9136C128.677 3.23713 129.09 3.56929 129.479 3.92195C129.802 4.21313 130.155 4.46117 130.469 4.7502C130.782 5.03922 131.179 5.2959 131.502 5.6011C131.824 5.9063 132.197 6.14032 132.507 6.44553C132.816 6.75073 133.166 6.94485 133.46 7.24034C133.871 7.65016 134.376 7.95428 134.781 8.37811C134.984 8.5938 135.245 8.74694 135.477 8.93244C135.833 9.21607 136.206 9.48353 136.537 9.7952C136.868 10.1069 137.246 10.3269 137.552 10.6429C137.858 10.9588 138.21 11.1616 138.522 11.4495C138.941 11.8421 139.385 12.2045 139.825 12.5744C139.999 12.72 140.206 12.83 140.364 12.9885C140.829 13.4436 141.397 13.7758 141.843 14.2546C141.995 14.4185 142.204 14.5274 142.382 14.6687C142.508 14.769 142.624 14.8844 142.748 14.9869C142.946 15.1544 143.146 15.3197 143.346 15.483C143.491 15.6016 143.64 15.7159 143.778 15.8356C143.979 16.0028 144.179 16.1732 144.38 16.3414C144.527 16.4654 144.678 16.5862 144.826 16.7124C144.923 16.7954 145.014 16.8871 145.113 16.968C145.352 17.1653 145.596 17.3584 145.838 17.5547L146.138 17.7984L146.766 18.316C146.942 18.1769 147.12 18.0389 147.295 17.8987C147.533 17.7056 147.772 17.5126 148.009 17.3163C148.189 17.1653 148.362 17.0068 148.548 16.8558C148.77 16.6714 148.996 16.4924 149.217 16.308C149.565 16.0189 149.897 15.7105 150.259 15.4452C150.622 15.1799 150.945 14.851 151.298 14.5663C151.674 14.2632 152.053 13.9613 152.424 13.655C152.653 13.4662 152.873 13.2646 153.104 13.0758C153.567 12.6995 154.034 12.3296 154.498 11.9553C154.629 11.8475 154.754 11.7321 154.885 11.6221C155.149 11.3999 155.417 11.181 155.681 10.9567C156.112 10.5879 156.537 10.2147 156.967 9.84696C157.051 9.76921 157.145 9.70219 157.245 9.64745C157.461 9.5396 157.593 9.35195 157.773 9.21607C157.953 9.08018 158.103 8.93675 158.268 8.79763C158.502 8.60027 158.736 8.40184 158.971 8.20664C159.044 8.14624 159.125 8.09879 159.199 8.03409C159.463 7.8184 159.731 7.60271 159.985 7.36868C160.152 7.21662 160.351 7.10877 160.511 6.9373C160.715 6.73089 160.938 6.54454 161.177 6.38082C161.609 6.07238 161.956 5.66365 162.411 5.38002C162.638 5.23982 162.813 5.01873 163.023 4.84079C163.484 4.4601 163.956 4.08587 164.417 3.70841C164.633 3.52939 164.831 3.32772 165.051 3.15409C165.348 2.92007 165.616 2.6483 165.914 2.4229C166.261 2.15976 166.577 1.8675 166.908 1.58818C167.131 1.40053 167.387 1.25062 167.596 1.04032C167.894 0.741593 168.268 0.53453 168.567 0.235799C168.638 0.155995 168.727 0.0936598 168.826 0.0536344C168.925 0.013609 169.032 -0.00302987 169.139 0.00500987C169.282 0.0131449 169.426 0.0131449 169.57 0.00500987C169.945 0.00500987 170.19 0.207759 170.418 0.488156C170.508 0.605352 170.562 0.746266 170.573 0.893654C170.596 0.996341 170.625 1.09754 170.66 1.1967V15.1627C170.636 15.2069 170.588 15.2511 170.587 15.2964C170.578 15.6372 170.379 15.8518 170.131 16.0513C169.981 16.1699 169.861 16.3263 169.716 16.4503C169.54 16.5992 169.349 16.7286 169.169 16.8709C169.069 16.9507 168.978 17.0413 168.882 17.1254C168.728 17.2592 168.575 17.394 168.415 17.5212C168.187 17.7024 167.932 17.8555 167.729 18.0605C167.426 18.3667 167.066 18.5997 166.744 18.8812C166.571 19.0332 166.391 19.1777 166.213 19.3255C165.987 19.5131 165.748 19.6846 165.541 19.8917C165.362 20.0707 165.127 20.1731 164.962 20.3748C164.843 20.5204 164.665 20.6164 164.516 20.7383C164.409 20.8288 164.301 20.9259 164.193 21.0165C164.033 21.1459 163.869 21.2667 163.71 21.3983C163.525 21.5525 163.349 21.7218 163.164 21.8717C162.948 22.055 162.724 22.233 162.502 22.4109C162.272 22.5778 162.051 22.7578 161.842 22.9502C161.552 23.2478 161.195 23.457 160.896 23.7439C160.719 23.9132 160.516 24.0556 160.327 24.2119C160.098 24.3996 159.873 24.5916 159.642 24.7771C159.486 24.9011 159.301 24.9927 159.169 25.1405C158.823 25.5201 158.394 25.7983 158.005 26.124C157.764 26.3257 157.53 26.5371 157.29 26.7409C157.134 26.8714 156.966 26.9922 156.815 27.1216C156.622 27.2812 156.432 27.4451 156.244 27.608C156.126 27.7235 156.001 27.8316 155.87 27.9315C155.38 28.2551 154.97 28.68 154.492 29.024C154.124 29.2893 153.81 29.6333 153.445 29.9137C153.204 30.0992 152.976 30.3009 152.743 30.4961C152.56 30.6492 152.388 30.8196 152.194 30.9566C152.021 31.0967 151.803 31.1678 151.58 31.1561C151.448 31.1442 151.312 31.1507 151.177 31.1464C150.931 31.1378 150.746 30.9911 150.564 30.8531C150.406 30.7333 150.256 30.6018 150.104 30.4734C149.917 30.3181 149.733 30.1607 149.547 30.0032L149.101 29.6301C148.917 29.4748 148.733 29.3184 148.548 29.1642C148.328 28.9809 148.106 28.7993 147.882 28.6196C147.667 28.4427 147.415 28.296 147.235 28.0879C146.912 27.7234 146.492 27.4646 146.127 27.1486C145.695 26.7754 145.254 26.4088 144.802 26.0561C144.538 25.8501 144.287 25.6247 144.03 25.409L143.059 24.597C143.026 24.6451 142.988 24.6899 142.945 24.7307C142.795 24.8472 142.637 24.9539 142.486 25.0704C142.335 25.1869 142.197 25.3012 142.054 25.4198C141.864 25.5794 141.677 25.7433 141.485 25.904C141.269 26.0874 141.01 26.2405 140.831 26.4573C140.724 26.5824 140.581 26.5986 140.477 26.7118C140.265 26.9199 140.039 27.1134 139.8 27.2909C139.693 27.3783 139.585 27.457 139.477 27.5454C139.254 27.7342 139.036 27.9283 138.814 28.117C138.706 28.2065 138.591 28.2853 138.49 28.3748C138.256 28.571 138.025 28.7706 137.793 28.9679C137.686 29.0617 137.569 29.1513 137.459 29.2451C137.243 29.4252 137.035 29.6074 136.822 29.7843C136.677 29.9051 136.528 30.0216 136.383 30.1424C136.256 30.2502 136.13 30.358 136.002 30.4659C135.818 30.618 135.631 30.7657 135.448 30.9188C135.219 31.1097 134.995 31.3038 134.766 31.4947C134.658 31.5832 134.551 31.663 134.443 31.7525C134.227 31.9358 134.011 32.1256 133.796 32.309C133.652 32.4308 133.501 32.5441 133.356 32.6627C133.21 32.7813 133.081 32.8881 132.946 33.0035C132.76 33.1599 132.579 33.3206 132.393 33.4758C132.246 33.5977 132.093 33.712 131.946 33.8339C131.758 33.9903 131.576 34.152 131.391 34.3084C131.16 34.5036 130.928 34.6967 130.696 34.8908L130.398 35.1377C130.24 35.2661 130.075 35.3912 129.923 35.5228C129.731 35.6824 129.544 35.8463 129.352 36.0091C129.213 36.1256 129.07 36.2367 128.93 36.3532C128.743 36.5063 128.558 36.6627 128.372 36.818C128.216 36.9474 128.059 37.0746 127.905 37.2051C127.72 37.3615 127.538 37.5222 127.353 37.6775C127.204 37.8004 127.049 37.9137 126.901 38.0366C126.716 38.1898 126.534 38.3483 126.353 38.5068C126.172 38.6654 125.982 38.8886 125.761 39.0137C125.54 39.1388 125.486 39.3038 125.487 39.5368C125.492 42.161 125.492 44.7852 125.487 47.4095C125.487 47.994 125.487 48.5774 125.5 49.1619C125.5 49.2547 125.521 49.3464 125.534 49.4574C125.857 49.1932 126.14 48.9538 126.429 48.7176C126.497 48.6626 126.58 48.6249 126.644 48.5677C126.897 48.352 127.153 48.1363 127.391 47.8969C127.484 47.8042 127.614 47.7804 127.701 47.6618C127.809 47.5108 127.992 47.4116 128.141 47.2876C128.328 47.1312 128.511 46.9694 128.699 46.8152C128.944 46.6136 129.193 46.4173 129.437 46.2156C129.529 46.1401 129.614 46.056 129.703 45.9762C129.883 45.7923 130.076 45.6221 130.281 45.4672C130.728 45.1727 131.09 44.777 131.519 44.4599C131.859 44.2086 132.173 43.9207 132.498 43.65C132.824 43.3793 133.172 43.0978 133.507 42.8185C133.841 42.5392 134.161 42.2609 134.491 41.9848C134.728 41.7864 134.971 41.5944 135.208 41.396C135.401 41.2342 135.587 41.0628 135.78 40.8999C136.02 40.6961 136.265 40.4977 136.508 40.2981C136.589 40.2313 136.674 40.1698 136.753 40.1008C136.943 39.9131 137.144 39.7364 137.354 39.5713C137.859 39.2197 138.291 38.7808 138.774 38.4044C138.974 38.2491 139.144 38.0539 139.342 37.8943C139.808 37.52 140.294 37.1695 140.751 36.7845C141.091 36.4977 141.413 36.1892 141.766 35.9218C141.982 35.7557 142.163 35.5411 142.382 35.3826C142.666 35.1715 142.939 34.9458 143.2 34.7064C143.592 34.3472 144.031 34.0399 144.43 33.684C144.646 33.4909 144.92 33.3529 145.117 33.1448C145.399 32.845 145.744 32.626 146.04 32.3489C146.129 32.2614 146.242 32.2021 146.364 32.1785C146.805 32.1235 147.249 32.0857 147.627 32.4093C147.87 32.6185 148.121 32.818 148.368 33.0229C148.536 33.162 148.703 33.3011 148.87 33.4424C149.096 33.6333 149.326 33.8188 149.542 34.0205C149.777 34.2362 150.044 34.4173 150.274 34.6449C150.598 34.962 150.974 35.2251 151.327 35.5141C151.562 35.7072 151.822 35.8808 152.039 36.0857C152.464 36.4869 152.939 36.8223 153.372 37.2116C153.61 37.4273 153.86 37.6279 154.106 37.8339C154.46 38.1315 154.811 38.4313 155.171 38.7214C155.471 38.9641 155.753 39.2262 156.071 39.4516C156.356 39.6532 156.592 39.9239 156.877 40.1364C157.248 40.4125 157.561 40.7576 157.937 41.0304C158.279 41.2795 158.569 41.5901 158.907 41.8425C159.202 42.0582 159.461 42.3256 159.743 42.5618C160.195 42.9371 160.653 43.3038 161.107 43.6769C161.346 43.8732 161.579 44.076 161.816 44.2733C162.101 44.5106 162.391 44.7424 162.679 44.9819C162.985 45.2428 163.276 45.5211 163.592 45.7713C163.829 45.96 164.068 46.1498 164.31 46.3321C164.603 46.5478 164.861 46.8228 165.149 47.0557C165.473 47.3178 165.784 47.5949 166.102 47.8699C166.187 47.9422 166.279 48.008 166.37 48.0727C166.631 48.2571 166.818 48.53 167.105 48.6853C167.197 48.7365 167.284 48.7987 167.361 48.8708C167.571 49.0616 167.773 49.259 168.02 49.493C168.038 49.3431 168.056 49.2493 168.057 49.1555C168.067 48.6065 168.077 48.0587 168.077 47.5108C168.077 44.878 168.077 42.2451 168.077 39.6122C168.077 39.5486 168.077 39.4861 168.077 39.4235C168.082 39.3753 168.075 39.3267 168.056 39.282C168.037 39.2374 168.007 39.1982 167.97 39.1679C167.744 38.9792 167.538 38.7603 167.323 38.5705C167.025 38.3224 166.694 38.111 166.412 37.8468C166.037 37.4942 165.614 37.1997 165.236 36.8557C165.057 36.6929 164.873 36.5322 164.69 36.379C164.551 36.2615 164.407 36.1493 164.266 36.0339C164.075 35.8754 163.887 35.7104 163.694 35.5573C163.333 35.2639 163 34.9382 162.62 34.6643C162.31 34.44 162.052 34.1531 161.733 33.9299C161.381 33.684 161.078 33.368 160.749 33.0865C160.502 32.8762 160.249 32.6735 159.994 32.4664C159.833 32.3327 159.671 32.1979 159.508 32.0609L158.82 31.4764C158.671 31.3704 158.534 31.2489 158.41 31.114C158.283 30.9458 158.122 30.7808 158.128 30.5414C158.128 30.3354 158.128 30.1283 158.135 29.9223C158.189 29.7094 158.288 29.5109 158.427 29.3411C158.734 29.1114 159.048 28.9097 159.465 28.9636C159.719 28.9992 159.96 29.0991 160.165 29.2537C160.31 29.3799 160.461 29.5007 160.612 29.6204C160.845 29.8059 161.107 29.9623 161.308 30.1779C161.654 30.5522 162.097 30.8045 162.462 31.1485C162.678 31.3545 162.925 31.5228 163.151 31.7126C163.417 31.9347 163.658 32.1871 163.939 32.3952C164.195 32.5861 164.432 32.8007 164.676 33.0067C164.868 33.1696 165.06 33.3303 165.249 33.5007C165.437 33.6711 165.596 33.8242 165.779 33.9709C166.022 34.1671 166.303 34.3246 166.519 34.5457C166.925 34.9587 167.423 35.2585 167.83 35.6673C168.008 35.8452 168.22 35.9908 168.415 36.1504C168.65 36.3445 168.884 36.5397 169.12 36.7339C169.209 36.8061 169.304 36.8697 169.39 36.9495C169.636 37.1652 169.863 37.3906 170.122 37.5891C170.381 37.7875 170.612 38.0722 170.59 38.4583C170.59 38.5575 170.59 38.6567 170.59 38.7549C170.59 43.2125 170.59 47.6701 170.59 52.1277C170.59 52.2894 170.582 52.4512 170.574 52.613C170.58 52.6668 170.57 52.7212 170.545 52.7694C170.363 52.9786 170.243 53.246 169.967 53.3679C169.923 53.3873 169.902 53.4628 169.871 53.5124H168.9C168.894 53.4724 168.874 53.4356 168.845 53.4081C168.815 53.3805 168.777 53.3637 168.736 53.3604C168.683 53.3557 168.632 53.3391 168.586 53.3118C168.351 53.1145 168.122 52.9106 167.889 52.71C167.656 52.5095 167.425 52.3067 167.19 52.1104C167.104 52.0392 167.001 51.9886 166.916 51.9163C166.7 51.7308 166.485 51.5378 166.269 51.3523C166.146 51.2444 166.01 51.1549 165.888 51.0481C165.634 50.826 165.393 50.5877 165.133 50.3741C164.734 50.0506 164.319 49.7411 163.917 49.4175C163.581 49.1468 163.283 48.8362 162.928 48.5839C162.573 48.3315 162.245 48.0048 161.904 47.7147C161.674 47.5169 161.441 47.3225 161.207 47.1312C160.919 46.8961 160.598 46.6923 160.344 46.4227C160.003 46.056 159.559 45.822 159.216 45.4618C159.034 45.2896 158.843 45.1287 158.642 44.9797C158.426 44.8039 158.217 44.6249 157.995 44.4523C157.833 44.3229 157.634 44.228 157.506 44.0716C157.19 43.6812 156.752 43.4451 156.388 43.1086C156.157 42.8942 155.913 42.695 155.657 42.5122C155.307 42.2642 155.023 41.9309 154.668 41.6796C154.313 41.4284 154.007 41.0833 153.641 40.8223C153.297 40.5775 153.014 40.2582 152.671 40.0091C152.296 39.7384 151.962 39.4127 151.608 39.1129C151.382 38.922 151.151 38.7365 150.926 38.5457C150.746 38.3936 150.573 38.2351 150.392 38.0841C150.159 37.89 149.922 37.7001 149.684 37.5103C149.535 37.3896 149.378 37.2763 149.231 37.1501C149.064 37.0078 148.908 36.8503 148.742 36.708C148.576 36.5656 148.389 36.4319 148.217 36.2895C148.044 36.1472 147.906 36.0124 147.746 35.8786C147.509 35.6802 147.262 35.4926 147.03 35.2876C146.857 35.1334 146.69 35.1291 146.53 35.2876C146.37 35.4462 146.217 35.5702 146.057 35.705C145.949 35.7945 145.833 35.8732 145.723 35.9595C145.4 36.214 145.112 36.5128 144.776 36.7597C144.399 37.038 144.069 37.3798 143.698 37.6667C143.423 37.8759 143.18 38.1251 142.914 38.3461C142.506 38.6848 142.089 39.0115 141.68 39.3491C141.47 39.5227 141.276 39.7158 141.064 39.8883C140.699 40.1903 140.309 40.4664 139.96 40.7878C139.671 41.0541 139.354 41.2882 139.066 41.5599C138.751 41.8565 138.384 42.0992 138.061 42.3979C137.619 42.8023 137.133 43.1604 136.669 43.54C136.416 43.7449 136.168 43.953 135.914 44.1601C135.758 44.2895 135.598 44.4135 135.446 44.5472C135.252 44.7176 135.08 44.9215 134.868 45.0627C134.41 45.3679 134.032 45.7637 133.598 46.0959C133.364 46.2749 133.142 46.4701 132.915 46.6588C132.722 46.8199 132.53 46.9817 132.339 47.1441C132.212 47.252 132.089 47.3598 131.963 47.4677C131.779 47.623 131.592 47.775 131.405 47.9282C131.241 48.0619 131.074 48.1924 130.912 48.3283C130.726 48.4836 130.546 48.6454 130.362 48.8017C130.221 48.9204 130.075 49.0325 129.93 49.1501C129.74 49.3097 129.552 49.4736 129.36 49.63C129.206 49.7594 129.046 49.8823 128.892 50.0107C128.704 50.1671 128.522 50.3288 128.334 50.4852C128.195 50.6027 128.051 50.7138 127.91 50.8303C127.724 50.9867 127.542 51.1463 127.356 51.3016C127.14 51.4849 126.925 51.665 126.702 51.8473C126.584 51.9443 126.469 52.0446 126.351 52.1417L125.681 52.6971C125.555 52.8117 125.424 52.9197 125.287 53.0206C125.099 53.1436 124.975 53.3625 124.725 53.3992C124.703 53.3992 124.691 53.4725 124.674 53.507L123.644 53.5027Z" fill="#FDE8E3"/>
<path d="M170.578 2.39402C170.566 2.24664 170.513 2.10572 170.422 1.98853C170.195 1.70813 169.95 1.50538 169.575 1.50538C169.431 1.51351 169.287 1.51351 169.143 1.50538C169.037 1.49734 168.93 1.51398 168.831 1.554C168.732 1.59403 168.643 1.65636 168.572 1.73617C168.27 2.0349 167.896 2.24196 167.601 2.54069C167.392 2.75099 167.135 2.9009 166.913 3.08855C166.582 3.36787 166.266 3.66013 165.919 3.92327C165.622 4.14866 165.354 4.42043 165.056 4.65446C164.84 4.82809 164.639 5.02976 164.422 5.20878C163.96 5.58948 163.489 5.9637 163.027 6.34116C162.818 6.51371 162.642 6.73479 162.416 6.88038C161.961 7.16401 161.614 7.57275 161.182 7.88118C160.943 8.04491 160.72 8.23126 160.516 8.43767C160.356 8.6059 160.158 8.71375 159.989 8.86905C159.736 9.09984 159.468 9.31553 159.203 9.53445C159.13 9.59592 159.049 9.6423 158.976 9.707C158.741 9.9022 158.507 10.1006 158.273 10.298C158.108 10.4371 157.949 10.5838 157.778 10.7164C157.606 10.8491 157.463 11.0486 157.25 11.1478C157.15 11.2026 157.056 11.2696 156.972 11.3473C156.541 11.7151 156.116 12.0882 155.685 12.4571C155.422 12.6814 155.154 12.9003 154.889 13.1225C154.759 13.2303 154.634 13.3479 154.502 13.4557C154.039 13.8299 153.572 14.1998 153.109 14.5762C152.878 14.7649 152.658 14.9655 152.428 15.1553C152.055 15.4616 151.679 15.7636 151.303 16.0666C150.95 16.3513 150.63 16.6727 150.264 16.9456C149.898 17.2184 149.569 17.5236 149.222 17.8083C149.007 17.9927 148.775 18.1718 148.553 18.3562C148.372 18.5072 148.199 18.6657 148.013 18.8167C147.777 19.013 147.538 19.206 147.299 19.399C147.125 19.5392 146.947 19.6773 146.771 19.8164L146.143 19.2988L145.842 19.055C145.601 18.8587 145.357 18.6657 145.118 18.4683C145.018 18.3875 144.928 18.2958 144.831 18.2127C144.683 18.0866 144.532 17.9658 144.384 17.8418C144.184 17.6735 143.984 17.5031 143.783 17.336C143.639 17.2163 143.49 17.1019 143.351 16.9833C143.151 16.8194 142.951 16.654 142.753 16.4872C142.629 16.3794 142.513 16.2715 142.387 16.1637C142.209 16.0224 142 15.9135 141.848 15.7496C141.401 15.2707 140.834 14.9386 140.369 14.4835C140.209 14.3249 140.001 14.2149 139.83 14.0693C139.391 13.6994 138.946 13.3371 138.527 12.9445C138.22 12.6566 137.856 12.443 137.557 12.1378C137.257 11.8326 136.864 11.5986 136.542 11.2902C136.219 10.9817 135.838 10.711 135.482 10.4274C135.25 10.2419 134.989 10.0855 134.786 9.87309C134.381 9.44925 133.876 9.14513 133.465 8.73424C133.171 8.43982 132.808 8.23492 132.512 7.9405C132.215 7.64608 131.828 7.40127 131.507 7.09607C131.185 6.79087 130.801 6.55685 130.473 6.24517C130.146 5.9335 129.804 5.70595 129.483 5.41692C129.095 5.06427 128.682 4.73318 128.27 4.40857C127.788 4.02788 127.34 3.61052 126.853 3.23737C126.646 3.07776 126.481 2.85344 126.26 2.72295C125.912 2.51697 125.629 2.23873 125.333 1.97774C124.889 1.58303 124.677 1.47518 124.107 1.49675C124.063 1.50246 124.018 1.50498 123.972 1.5043C123.716 1.47734 123.523 1.63479 123.371 1.7847C123.118 2.03382 122.911 2.33255 122.962 2.72727C122.965 2.77216 122.965 2.81718 122.962 2.86207V16.1572C122.962 16.2467 122.962 16.3373 122.962 16.4268C122.978 16.6933 123.086 16.946 123.267 17.1418C123.409 17.3122 123.626 17.3942 123.768 17.5506C124.103 17.9216 124.546 18.1588 124.899 18.5061C125.062 18.6579 125.239 18.7943 125.427 18.9137C125.727 19.1165 125.984 19.3829 126.262 19.6191C126.51 19.8347 126.761 20.0353 127.017 20.2435L127.571 20.7061C127.732 20.8388 127.895 20.9725 128.058 21.103C128.145 21.1742 128.241 21.2367 128.327 21.3101C128.534 21.4869 128.733 21.6757 128.945 21.8493C129.345 22.1728 129.755 22.4769 130.155 22.7972C130.422 23.0129 130.677 23.2373 130.939 23.4551C131.299 23.7564 131.661 24.0558 132.025 24.3535C132.269 24.553 132.52 24.7439 132.754 24.952C132.988 25.1601 133.229 25.337 133.453 25.5462C133.731 25.8061 134.073 26.0078 134.496 25.9409C134.593 25.9258 134.694 25.9409 134.793 25.9269C134.855 25.9246 134.917 25.9103 134.974 25.8849C135.155 25.7981 135.315 25.6726 135.442 25.5172C135.569 25.3617 135.661 25.1802 135.71 24.9854C135.805 24.6015 135.69 24.2381 135.471 23.907C135.345 23.7449 135.193 23.6053 135.021 23.4939C134.748 23.2782 134.492 23.0474 134.224 22.8264C134.039 22.6732 133.845 22.5287 133.657 22.3777C133.526 22.2699 133.402 22.162 133.274 22.0542C133.097 21.9075 132.918 21.7652 132.741 21.6228C132.373 21.3187 132.004 21.0142 131.636 20.7094C131.376 20.4937 131.117 20.278 130.858 20.0623C130.724 19.948 130.593 19.8261 130.453 19.7172C130.208 19.5252 129.952 19.3462 129.711 19.1499C129.387 18.89 129.083 18.6172 128.766 18.3562C128.591 18.2138 128.389 18.1027 128.227 17.9453C127.818 17.5366 127.337 17.2184 126.906 16.8388C126.725 16.6803 126.533 16.5347 126.349 16.3794C126.14 16.2036 125.946 16.0062 125.722 15.852C125.646 15.8068 125.584 15.7414 125.543 15.6632C125.502 15.5849 125.484 15.4969 125.49 15.4088C125.49 13.7113 125.49 12.0127 125.49 10.3142C125.49 8.83957 125.49 7.36568 125.49 5.89252C125.49 5.78468 125.501 5.68761 125.51 5.5183C125.668 5.64016 125.77 5.72536 125.879 5.80193C126.161 5.99821 126.388 6.25919 126.674 6.449C126.788 6.52557 126.89 6.63018 126.998 6.71861C127.218 6.90051 127.439 7.08026 127.663 7.25784C127.834 7.37447 127.996 7.50466 128.147 7.64716C128.532 8.07854 129.04 8.35463 129.441 8.75581C129.6 8.91218 129.803 9.02219 129.972 9.16778C130.295 9.44925 130.609 9.74475 130.958 10.0025C131.329 10.2775 131.648 10.6215 132.023 10.8976C132.266 11.0766 132.487 11.2837 132.719 11.4767C132.827 11.5663 132.934 11.6493 133.042 11.7388C133.268 11.9275 133.492 12.1206 133.718 12.3093C133.826 12.3967 133.934 12.4754 134.042 12.5649C134.258 12.7526 134.473 12.9456 134.695 13.1332C134.839 13.2551 134.988 13.3694 135.133 13.4891C135.262 13.597 135.387 13.7048 135.515 13.8127C135.7 13.9647 135.887 14.1125 136.071 14.2656C136.305 14.463 136.534 14.6657 136.769 14.8642C136.867 14.9472 136.976 15.0205 137.076 15.1036C137.291 15.2858 137.507 15.4724 137.73 15.6557C137.849 15.755 137.971 15.8499 138.088 15.9491C138.304 16.1346 138.526 16.3244 138.748 16.5066C138.982 16.6742 139.207 16.8542 139.422 17.0459C139.777 17.4061 140.21 17.6692 140.573 18.0165C140.739 18.1761 140.93 18.3109 141.112 18.4597C141.347 18.656 141.58 18.8533 141.814 19.0518C141.922 19.1456 142.03 19.2437 142.149 19.3365C142.304 19.4627 142.465 19.5813 142.619 19.7086C142.804 19.8639 142.984 20.0321 143.169 20.1842C143.316 20.3082 143.468 20.4257 143.615 20.5487C143.795 20.6986 143.972 20.8528 144.155 21.0027C144.382 21.1904 144.611 21.378 144.84 21.5635C145.001 21.6929 145.164 21.8169 145.326 21.9496C145.541 22.1546 145.769 22.3466 146.007 22.5244C146.128 22.6031 146.234 22.7196 146.412 22.7401C146.656 22.7714 146.904 22.7714 147.148 22.7401C147.353 22.7142 147.472 22.5395 147.668 22.5071C147.916 22.2138 148.235 22.0003 148.523 21.7522C148.749 21.5581 148.982 21.3737 149.213 21.186C149.313 21.1041 149.417 21.0254 149.517 20.9423C149.743 20.7536 149.966 20.5616 150.192 20.3718L150.609 20.0245C150.737 19.9167 150.864 19.8089 150.992 19.701C151.179 19.5479 151.367 19.399 151.552 19.2448C151.779 19.0561 152.004 18.8631 152.229 18.6711C152.337 18.5762 152.445 18.4791 152.564 18.3875C152.721 18.2602 152.888 18.1405 153.04 18.0122C153.224 17.8601 153.403 17.7016 153.579 17.5463C153.722 17.4255 153.863 17.3025 154.011 17.1861C154.304 16.9488 154.631 16.745 154.888 16.4743C155.232 16.113 155.658 15.8585 156.015 15.5123C156.439 15.1003 156.931 14.7574 157.392 14.3842C157.633 14.189 157.871 13.9895 158.111 13.79C158.297 13.6347 158.482 13.4762 158.668 13.3187C158.855 13.1613 159.056 12.9887 159.252 12.827C159.448 12.6652 159.623 12.5282 159.805 12.3751C159.959 12.2468 160.108 12.113 160.261 11.9836C160.447 11.8283 160.634 11.6763 160.82 11.521C160.971 11.3948 161.104 11.2373 161.273 11.1467C161.489 11.0292 161.643 10.8491 161.826 10.6981C161.982 10.5676 162.135 10.4317 162.291 10.3012C162.473 10.1492 162.661 10.0025 162.843 9.84828C162.991 9.72318 163.127 9.58514 163.274 9.46435C163.382 9.37376 163.527 9.31337 163.638 9.22062C164.019 8.90356 164.393 8.57355 164.767 8.25756C165.002 8.06021 165.244 7.86932 165.481 7.67304C165.65 7.53285 165.815 7.38833 165.982 7.24166C166.174 7.07882 166.364 6.91813 166.557 6.75528C166.706 6.63342 166.861 6.5191 167.008 6.39616C167.189 6.24517 167.365 6.08772 167.547 5.93566C167.692 5.81271 167.84 5.69409 167.996 5.56467C168.064 5.69765 168.089 5.84815 168.069 5.99605C168.069 8.73604 168.069 11.4767 168.069 14.2182C168.069 14.7391 168.054 15.26 168.048 15.7808C168.048 15.8326 168.037 15.8837 168.015 15.9309C167.994 15.9781 167.963 16.0203 167.925 16.0548C167.527 16.4743 167.039 16.7838 166.611 17.1656C166.385 17.3683 166.117 17.5258 165.895 17.7328C165.636 17.9802 165.364 18.2138 165.081 18.4328C164.857 18.6032 164.667 18.8178 164.448 18.9968C164.049 19.3203 163.644 19.6439 163.235 19.9588C162.825 20.2737 162.48 20.6393 162.048 20.9294C161.748 21.13 161.509 21.4211 161.211 21.6422C160.962 21.8234 160.726 22.0216 160.505 22.2354C160.354 22.3864 160.153 22.4726 160.013 22.6161C159.567 23.0712 159.043 23.4335 158.567 23.8541C158.182 24.1949 157.775 24.5249 157.362 24.8388C157.11 25.0307 156.867 25.2345 156.624 25.4362C156.45 25.5797 156.282 25.7296 156.109 25.873C155.873 26.0703 155.635 26.2666 155.397 26.4607C155.303 26.5395 155.202 26.6107 155.108 26.6894C154.866 26.8921 154.624 27.0963 154.383 27.3019C154.219 27.4421 154.059 27.5877 153.896 27.7247C153.733 27.8617 153.559 27.9878 153.39 28.1205C153.289 28.2014 153.189 28.2833 153.09 28.3675C152.85 28.567 152.612 28.7686 152.373 28.9692C152.158 29.1493 151.942 29.323 151.726 29.5084C151.56 29.6616 151.381 29.6767 151.218 29.5386C150.918 29.282 150.609 29.0329 150.304 28.7837L149.739 28.3168L149.051 27.7549C148.886 27.6374 148.728 27.5095 148.579 27.372C148.18 26.9536 147.685 26.6506 147.264 26.2602C147.098 26.107 146.9 25.9905 146.725 25.8417C146.454 25.6055 146.197 25.3553 145.908 25.1386C145.566 24.8797 145.251 24.5832 144.913 24.3179C144.494 23.9943 144.136 23.5834 143.665 23.3203C143.61 23.2806 143.548 23.2513 143.483 23.234C143.325 23.2096 143.166 23.1942 143.007 23.1876C142.661 23.1823 142.347 23.2577 142.107 23.536C141.999 23.6541 141.882 23.7623 141.755 23.8595C141.351 24.1831 140.941 24.5066 140.536 24.8301C140.197 25.1051 139.858 25.3812 139.526 25.6649C139.251 25.8978 139.009 26.1782 138.712 26.3734C138.251 26.6754 137.881 27.0787 137.446 27.4065C137.122 27.6524 136.815 27.9296 136.499 28.1917C136.253 28.3955 136.003 28.5961 135.757 28.8021C135.583 28.9466 135.413 29.0965 135.243 29.2464C135.074 29.3963 134.9 29.6034 134.695 29.7295C134.452 29.8868 134.225 30.0674 134.017 30.2688C133.894 30.382 133.772 30.4985 133.64 30.6009C133.462 30.7379 133.251 30.8414 133.1 30.9999C132.695 31.4108 132.204 31.7171 131.792 32.1172C131.631 32.2747 131.408 32.3685 131.253 32.5292C130.851 32.9455 130.363 33.2582 129.941 33.6475C129.718 33.8535 129.454 34.0131 129.242 34.2191C128.773 34.6732 128.225 35.0301 127.755 35.482C127.573 35.6556 127.367 35.8055 127.172 35.9641C126.931 36.1636 126.69 36.3642 126.447 36.5615C126.366 36.6273 126.275 36.6823 126.195 36.7503C126.032 36.8905 125.864 37.0253 125.716 37.1816C125.535 37.3725 125.285 37.4717 125.108 37.6734C124.982 37.7965 124.847 37.9093 124.704 38.011C124.51 38.1738 124.318 38.3345 124.125 38.5027C123.931 38.671 123.73 38.8575 123.517 39.0161C123.172 39.2738 122.926 39.579 122.955 40.0395C122.955 40.0751 122.955 40.1118 122.955 40.1474C122.955 44.6682 122.955 49.1884 122.955 53.7078C122.955 53.8426 122.963 53.9774 122.975 54.1112C122.974 54.1746 122.991 54.237 123.023 54.2913C123.205 54.4962 123.337 54.7518 123.613 54.8639C123.639 54.8736 123.638 54.9524 123.65 54.9998H124.675C124.692 54.961 124.704 54.892 124.725 54.8866C124.975 54.851 125.099 54.6321 125.287 54.508C125.424 54.4074 125.556 54.2994 125.682 54.1845L126.352 53.6291C126.469 53.532 126.584 53.4317 126.702 53.3347C126.918 53.1524 127.133 52.9723 127.357 52.789C127.542 52.6337 127.724 52.4741 127.911 52.3177C128.051 52.2012 128.196 52.0901 128.335 51.9726C128.522 51.8162 128.705 51.6491 128.892 51.4981C129.047 51.3697 129.206 51.2468 129.36 51.1174C129.552 50.9589 129.74 50.7938 129.931 50.6375C130.072 50.5199 130.218 50.4078 130.362 50.2891C130.547 50.1328 130.727 49.971 130.912 49.8157C131.074 49.6798 131.236 49.5493 131.405 49.4156C131.593 49.2624 131.779 49.1089 131.964 48.9551C132.09 48.8472 132.213 48.7394 132.339 48.6315C132.53 48.4691 132.722 48.3073 132.915 48.1462C133.143 47.9564 133.365 47.7623 133.599 47.5833C134.03 47.2511 134.411 46.8553 134.868 46.5501C135.084 46.4089 135.252 46.205 135.446 46.0346C135.598 45.9009 135.759 45.7769 135.914 45.6475C136.165 45.4404 136.413 45.2323 136.669 45.0274C137.134 44.6478 137.619 44.2897 138.061 43.8853C138.385 43.5887 138.752 43.3461 139.066 43.0473C139.354 42.7756 139.671 42.5415 139.96 42.2752C140.309 41.9516 140.699 41.6777 141.065 41.3757C141.281 41.2021 141.47 41.0091 141.681 40.8365C142.089 40.4989 142.507 40.1722 142.914 39.8335C143.181 39.6125 143.423 39.3633 143.698 39.1541C144.074 38.8673 144.404 38.5254 144.777 38.2471C145.112 38.0002 145.398 37.7014 145.724 37.4469C145.832 37.3607 145.949 37.2819 146.057 37.1924C146.218 37.0576 146.381 36.9217 146.53 36.7751C146.68 36.6284 146.854 36.6252 147.031 36.7751C147.263 36.98 147.51 37.1676 147.747 37.366C147.907 37.4998 148.058 37.6432 148.217 37.7759C148.377 37.9085 148.572 38.0509 148.742 38.1954C148.913 38.3399 149.066 38.4952 149.232 38.6375C149.379 38.7626 149.535 38.877 149.685 38.9977C149.922 39.1876 150.159 39.3774 150.392 39.5715C150.574 39.7225 150.746 39.881 150.926 40.0331C151.152 40.2239 151.382 40.4094 151.609 40.6003C151.963 40.9001 152.297 41.2258 152.671 41.4965C153.017 41.7456 153.301 42.0649 153.642 42.3097C154.007 42.5707 154.305 42.9093 154.668 43.167C155.032 43.4248 155.308 43.7505 155.657 43.9996C155.914 44.1824 156.158 44.3816 156.389 44.596C156.749 44.9325 157.191 45.1686 157.507 45.559C157.634 45.7154 157.83 45.8103 157.995 45.9397C158.211 46.1123 158.427 46.2913 158.643 46.4671C158.844 46.6157 159.035 46.7767 159.216 46.9492C159.559 47.3094 160.004 47.5434 160.344 47.9101C160.595 48.1797 160.915 48.3835 161.207 48.6186C161.441 48.8106 161.673 49.0051 161.905 49.2021C162.246 49.4922 162.565 49.8135 162.928 50.0713C163.292 50.329 163.582 50.6342 163.917 50.9049C164.319 51.2285 164.735 51.5358 165.134 51.8615C165.395 52.0772 165.635 52.3134 165.889 52.5355C166.01 52.6434 166.146 52.734 166.269 52.8397C166.485 53.0252 166.701 53.2182 166.916 53.4037C167.002 53.476 167.104 53.5266 167.19 53.5978C167.425 53.7941 167.657 53.9968 167.889 54.1974C168.121 54.398 168.352 54.6019 168.587 54.7992C168.633 54.8265 168.684 54.8431 168.737 54.8477C168.776 54.8534 168.811 54.8715 168.839 54.8993C168.867 54.9271 168.885 54.9632 168.89 55.002H169.861C169.892 54.9524 169.912 54.8769 169.957 54.8575C170.233 54.7356 170.352 54.4681 170.535 54.2589C170.559 54.2108 170.569 54.1564 170.564 54.1025C170.571 53.9408 170.58 53.779 170.58 53.6172C170.58 49.1596 170.58 44.702 170.58 40.2444C170.58 40.1463 170.572 40.0471 170.58 39.9479C170.601 39.5618 170.387 39.29 170.112 39.0786C169.837 38.8673 169.625 38.6473 169.38 38.4391C169.293 38.3647 169.198 38.3011 169.11 38.2288C168.874 38.0347 168.64 37.8395 168.405 37.6454C168.209 37.4847 167.998 37.3402 167.82 37.1622C167.412 36.7535 166.914 36.4537 166.509 36.0396C166.293 35.8239 166.012 35.6621 165.769 35.4658C165.586 35.3181 165.416 35.1509 165.238 34.9956C165.06 34.8403 164.858 34.6645 164.666 34.5017C164.422 34.2957 164.185 34.08 163.929 33.8902C163.648 33.6821 163.407 33.4297 163.141 33.2075C162.914 33.0177 162.667 32.8495 162.452 32.6435C162.087 32.2952 161.644 32.0439 161.298 31.6729C161.097 31.4572 160.835 31.3008 160.602 31.1153C160.451 30.9946 160.3 30.8748 160.154 30.7487C159.95 30.5937 159.709 30.4934 159.455 30.4575C159.037 30.4036 158.723 30.6052 158.417 30.836C158.278 31.0059 158.178 31.2044 158.125 31.4173C158.117 31.6233 158.125 31.8304 158.117 32.0363C158.117 32.2758 158.273 32.4408 158.4 32.609C158.523 32.7439 158.661 32.8653 158.81 32.9714L159.498 33.5559C159.659 33.6928 159.821 33.8266 159.984 33.9614C160.234 34.1684 160.488 34.3712 160.739 34.5815C161.063 34.863 161.371 35.1789 161.723 35.4248C162.046 35.6481 162.3 35.9349 162.61 36.1593C162.99 36.4332 163.323 36.7589 163.683 37.0522C163.876 37.2086 164.065 37.3704 164.256 37.5289C164.397 37.6443 164.541 37.7564 164.68 37.874C164.863 38.0304 165.046 38.1878 165.225 38.3496C165.604 38.6958 166.027 38.9891 166.402 39.3418C166.683 39.606 167.015 39.8174 167.312 40.0654C167.538 40.2552 167.744 40.4741 167.959 40.6629C167.997 40.6931 168.027 40.7324 168.046 40.777C168.064 40.8216 168.072 40.8703 168.067 40.9185C168.067 40.981 168.067 41.0436 168.067 41.1072C168.067 43.7401 168.067 46.3729 168.067 49.0058C168.067 49.5536 168.056 50.1015 168.047 50.6504C168.047 50.7442 168.027 50.8381 168.01 50.988C167.763 50.7539 167.56 50.5566 167.351 50.3657C167.273 50.2937 167.187 50.2314 167.094 50.1802C166.807 50.0249 166.621 49.7488 166.36 49.5676C166.268 49.5029 166.177 49.4372 166.091 49.3649C165.768 49.0942 165.464 48.8127 165.139 48.5507C164.851 48.3177 164.592 48.047 164.3 47.827C164.057 47.6448 163.819 47.455 163.582 47.2662C163.266 47.0171 162.975 46.7378 162.668 46.4768C162.386 46.2374 162.096 46.0055 161.806 45.7683C161.568 45.5709 161.335 45.3682 161.097 45.1719C160.643 44.7987 160.185 44.4321 159.733 44.0557C159.45 43.8206 159.194 43.5553 158.897 43.3374C158.556 43.0851 158.266 42.7745 157.926 42.5254C157.551 42.2525 157.237 41.9074 156.866 41.6313C156.582 41.4156 156.345 41.1482 156.061 40.9465C155.737 40.7211 155.461 40.459 155.16 40.2164C154.801 39.9263 154.449 39.6265 154.096 39.3288C153.85 39.1228 153.6 38.9212 153.361 38.7066C152.93 38.3162 152.453 37.9818 152.028 37.5807C151.813 37.3758 151.552 37.2021 151.317 37.0091C150.964 36.7201 150.586 36.4569 150.264 36.1388C150.033 35.9123 149.767 35.7344 149.532 35.5154C149.316 35.3138 149.085 35.1283 148.86 34.9374C148.693 34.7961 148.526 34.657 148.357 34.5179C148.11 34.313 147.86 34.1134 147.616 33.9042C147.239 33.5807 146.795 33.6184 146.354 33.6734C146.231 33.6971 146.119 33.7564 146.03 33.8438C145.733 34.121 145.383 34.3399 145.107 34.6397C144.91 34.8489 144.637 34.987 144.42 35.1789C144.021 35.5348 143.582 35.8422 143.189 36.2013C142.929 36.4408 142.656 36.6665 142.372 36.8775C142.156 37.0393 141.973 37.2539 141.756 37.4167C141.402 37.6885 141.081 37.9969 140.74 38.2795C140.284 38.6645 139.798 39.015 139.332 39.3892C139.133 39.5488 138.964 39.744 138.763 39.8993C138.279 40.2757 137.849 40.7146 137.344 41.0662C137.134 41.2313 136.933 41.4081 136.742 41.5957C136.664 41.6648 136.578 41.7262 136.498 41.7931C136.255 41.9926 136.01 42.191 135.77 42.3949C135.577 42.5577 135.391 42.7281 135.198 42.891C134.961 43.0894 134.718 43.2814 134.481 43.4798C134.151 43.7559 133.826 44.0373 133.496 44.3134C133.166 44.5895 132.823 44.8678 132.488 45.1449C132.152 45.4221 131.848 45.7036 131.509 45.9548C131.077 46.2719 130.718 46.6677 130.271 46.9621C130.065 47.1171 129.872 47.2872 129.693 47.4711C129.604 47.5509 129.519 47.6351 129.426 47.7106C129.182 47.9122 128.933 48.1085 128.689 48.3102C128.501 48.4644 128.318 48.6262 128.131 48.7825C127.982 48.9066 127.807 49.0058 127.691 49.1568C127.604 49.2754 127.475 49.2991 127.38 49.3919C127.143 49.628 126.886 49.8437 126.634 50.0627C126.568 50.1198 126.485 50.1576 126.418 50.2126C126.129 50.4487 125.842 50.6882 125.523 50.9524C125.51 50.8445 125.491 50.7496 125.49 50.6569C125.482 50.0724 125.477 49.4889 125.477 48.9044C125.477 46.2802 125.477 43.6559 125.477 41.0317C125.477 40.7988 125.522 40.6381 125.751 40.5087C125.979 40.3792 126.147 40.1733 126.343 40.0018C126.539 39.8303 126.705 39.6847 126.891 39.5316C127.038 39.4086 127.194 39.2943 127.343 39.1725C127.528 39.0172 127.709 38.8565 127.895 38.7001C128.049 38.5696 128.205 38.4423 128.362 38.3129C128.547 38.1576 128.733 38.0013 128.919 37.8481C129.06 37.7316 129.203 37.6206 129.342 37.5041C129.534 37.3434 129.721 37.1806 129.913 37.0177C130.069 36.8861 130.23 36.761 130.388 36.6327L130.686 36.3857C130.918 36.1916 131.15 35.9986 131.38 35.8034C131.566 35.647 131.748 35.4798 131.936 35.3288C132.082 35.207 132.236 35.0927 132.382 34.9708C132.569 34.8155 132.75 34.6548 132.935 34.4984C133.071 34.3834 133.207 34.2698 133.345 34.1577C133.491 34.039 133.642 33.9247 133.785 33.8039C134.001 33.6206 134.217 33.4308 134.432 33.2474C134.54 33.1579 134.648 33.0781 134.756 32.9897C134.985 32.7988 135.209 32.6047 135.437 32.4138C135.621 32.2607 135.807 32.1129 135.992 31.9608C136.12 31.853 136.245 31.7452 136.374 31.6373C136.502 31.5295 136.667 31.4001 136.811 31.2793C137.027 31.1002 137.236 30.918 137.449 30.74C137.557 30.6462 137.673 30.5567 137.783 30.4629C138.015 30.2655 138.246 30.066 138.48 29.8697C138.588 29.7802 138.695 29.7015 138.803 29.612C139.025 29.4233 139.243 29.2281 139.467 29.0393C139.574 28.952 139.682 28.8732 139.79 28.7859C140.029 28.6086 140.255 28.4151 140.467 28.2068C140.575 28.0935 140.718 28.0773 140.822 27.9522C141.001 27.7366 141.254 27.5823 141.476 27.399C141.668 27.2405 141.854 27.0755 142.045 26.9148C142.186 26.7961 142.33 26.6786 142.477 26.5654C142.623 26.4521 142.786 26.3421 142.936 26.2256C142.978 26.1849 143.017 26.1401 143.05 26.0919L144.021 26.904C144.278 27.1197 144.529 27.3408 144.793 27.5511C145.245 27.9037 145.687 28.2704 146.117 28.6435C146.483 28.9595 146.898 29.2183 147.226 29.5829C147.412 29.7888 147.657 29.9377 147.88 30.1145C148.102 30.2914 148.324 30.4758 148.544 30.6592C148.729 30.8123 148.913 30.9698 149.097 31.125L149.544 31.4982C149.729 31.6546 149.914 31.8131 150.1 31.9684C150.252 32.0967 150.402 32.2283 150.561 32.348C150.744 32.4861 150.927 32.6327 151.173 32.6414C151.308 32.6414 151.444 32.6414 151.576 32.6511C151.799 32.6627 152.017 32.5917 152.19 32.4515C152.384 32.3135 152.556 32.1442 152.739 31.991C152.972 31.7958 153.201 31.5942 153.441 31.4087C153.806 31.1283 154.121 30.7843 154.488 30.519C154.966 30.1749 155.376 29.7511 155.867 29.4265C155.998 29.3265 156.122 29.2185 156.24 29.103C156.428 28.939 156.618 28.7794 156.811 28.6166C156.967 28.4872 157.135 28.3664 157.286 28.2359C157.526 28.0321 157.76 27.8207 158.001 27.619C158.39 27.2955 158.819 27.0151 159.166 26.6355C159.297 26.4909 159.483 26.396 159.638 26.272C159.869 26.0865 160.094 25.8946 160.323 25.7069C160.513 25.5505 160.715 25.4082 160.892 25.2389C161.19 24.952 161.548 24.7428 161.838 24.4451C162.047 24.2528 162.268 24.0728 162.498 23.9059C162.72 23.7269 162.942 23.5489 163.16 23.3667C163.346 23.2125 163.521 23.0431 163.706 22.8932C163.863 22.7617 164.029 22.6409 164.189 22.5115C164.297 22.4209 164.405 22.3238 164.513 22.2332C164.661 22.1114 164.836 22.0175 164.958 21.8698C165.123 21.6681 165.358 21.5657 165.537 21.3866C165.743 21.1796 165.984 21.0081 166.209 20.8204C166.387 20.6727 166.567 20.5282 166.741 20.3761C167.064 20.0946 167.422 19.8617 167.725 19.5554C167.928 19.3505 168.184 19.1974 168.411 19.0162C168.571 18.8889 168.724 18.7541 168.878 18.6204C168.974 18.5363 169.066 18.4457 169.165 18.3659C169.345 18.2235 169.536 18.0941 169.712 17.9453C169.857 17.8213 169.977 17.6649 170.127 17.5463C170.375 17.35 170.574 17.1354 170.583 16.7914C170.583 16.7461 170.632 16.7018 170.656 16.6576V2.69707C170.624 2.59772 170.598 2.49653 170.578 2.39402Z" fill="#FF844B"/>
<path d="M28.6439 36.4974C27.8523 36.4974 27.0618 36.5039 26.2713 36.4974C25.8857 36.5077 25.4999 36.4842 25.1184 36.4273C24.7809 36.3637 24.4433 36.3691 24.1068 36.327C24.0296 36.3112 23.954 36.2877 23.8814 36.2569C23.8163 36.2303 23.7492 36.2087 23.6808 36.1922C23.5061 36.1663 23.3174 36.1922 23.1772 36.0477C23.1675 36.0369 23.1438 36.039 23.1265 36.0358C22.951 36.0224 22.7807 35.9697 22.6283 35.8816C22.4916 35.8058 22.3469 35.7454 22.1969 35.7015C21.8669 35.5775 21.5886 35.3704 21.2824 35.2108C20.9835 35.0498 20.7026 34.8575 20.4444 34.6371C20.1272 34.3947 19.8661 34.0869 19.6787 33.7344C19.5953 33.5878 19.5038 33.446 19.4048 33.3095C19.3852 33.2699 19.3728 33.2272 19.3681 33.1833C19.3573 33.1315 19.3681 33.0582 19.339 33.0269C19.1427 32.8274 19.2193 32.5718 19.1805 32.3389C19.1501 32.0554 19.1483 31.7696 19.1751 31.4858C19.1859 31.1752 19.3757 31.0005 19.5579 30.814C19.7208 30.6457 19.972 30.622 20.1662 30.4958C20.2351 30.4703 20.3094 30.4632 20.3819 30.4753C20.9125 30.4753 21.442 30.4753 21.9726 30.4753C22.0983 30.4621 22.2246 30.4934 22.3295 30.5638C22.3652 30.5904 22.4065 30.6085 22.4503 30.6166C22.8073 30.6888 23.0435 30.9164 23.2613 31.1925C23.4641 31.4502 23.5849 31.749 23.765 32.0186C23.8977 32.2072 24.0723 32.3626 24.2751 32.4726C24.4584 32.5805 24.6504 32.6743 24.8413 32.7659C24.8995 32.7899 24.9617 32.8027 25.0246 32.8037C25.3384 32.8274 25.6512 32.8479 25.965 32.8684C26.0097 32.8643 26.0548 32.8668 26.0987 32.876C26.4535 33.0237 26.8256 32.9644 27.1912 32.9687C28.4131 32.9806 29.635 32.9741 30.8579 32.9989C31.206 32.9953 31.5494 32.9177 31.8652 32.7713C32.0139 32.711 32.1492 32.6216 32.263 32.5085C32.3769 32.3954 32.4671 32.2607 32.5285 32.1124C32.6093 31.9129 32.6762 31.7155 32.6255 31.5214C32.5479 31.2205 32.4346 30.9218 32.1089 30.7794C32.0387 30.7343 31.971 30.6853 31.9062 30.6328C31.6396 30.4843 31.3598 30.3608 31.0704 30.2639C30.6789 30.1227 30.2723 30.0407 29.8841 29.9167C29.5347 29.8088 29.1572 29.8347 28.8272 29.6568C28.7424 29.6287 28.6534 29.6152 28.5641 29.6169C28.3894 29.5964 28.2103 29.6169 28.0529 29.4939C27.9936 29.4465 27.8803 29.4626 27.7908 29.454C27.5967 29.4357 27.3961 29.4626 27.2246 29.3257C27.1826 29.2912 27.1049 29.2987 27.0424 29.2933C26.8267 29.2728 26.611 29.2933 26.4233 29.151C26.3737 29.1143 26.2853 29.1273 26.2141 29.1208C26.0545 29.1068 25.8906 29.1208 25.7579 28.9946C25.7445 28.9827 25.7273 28.9759 25.7094 28.9752C25.4553 28.9483 25.2052 28.8918 24.9642 28.807C24.6299 28.6991 24.2912 28.6161 23.9656 28.4834C23.9065 28.4637 23.8459 28.449 23.7844 28.4392C23.6905 28.4209 23.5924 28.4273 23.5212 28.3314C23.491 28.2904 23.4134 28.2807 23.3476 28.2731C23.2379 28.2495 23.132 28.211 23.0327 28.1588C22.8558 28.0844 22.6736 28.0143 22.4935 27.9485C22.2778 27.8709 22.0944 27.7447 21.8906 27.6573C21.6498 27.5527 21.4203 27.4237 21.2058 27.2723C20.8333 27.0092 20.4972 26.6981 20.2061 26.347C20.0351 26.1463 19.8766 25.9352 19.7316 25.715C19.6647 25.6072 19.7024 25.4465 19.5622 25.3721C19.5622 25.0917 19.3465 24.8674 19.3606 24.5751C19.3692 24.3907 19.3034 24.2041 19.2959 24.0175C19.2891 23.8122 19.2927 23.6067 19.3066 23.4017C19.3185 23.2141 19.3412 23.0275 19.3573 22.841C19.3735 22.6544 19.3347 22.4775 19.4846 22.3352C19.5008 22.3201 19.4997 22.2845 19.5051 22.2586C19.5243 22.0957 19.5713 21.9374 19.6442 21.7905C19.724 21.646 19.7671 21.467 19.8599 21.3128C19.9925 21.0971 20.1015 20.8631 20.2988 20.6862C20.4962 20.5093 20.6763 20.3066 20.8596 20.1114C21.034 19.9332 21.2384 19.7871 21.4635 19.68C21.6296 19.5948 21.7871 19.488 21.9467 19.3996C22.005 19.3773 22.0653 19.3607 22.1268 19.35C22.1947 19.3306 22.2627 19.3079 22.3285 19.2831C22.3943 19.2583 22.4848 19.2174 22.5646 19.1882C22.6639 19.1526 22.7652 19.1225 22.8645 19.0879C22.8806 19.0825 22.8936 19.0577 22.9065 19.0577C23.2074 19.0653 23.4727 18.9122 23.7606 18.8712C24.0259 18.8334 24.2999 18.8582 24.5501 18.7331C24.6015 18.7163 24.6557 18.7094 24.7097 18.7126C25.1317 18.6954 25.5534 18.6796 25.9747 18.6652C26.17 18.6612 26.3646 18.6395 26.556 18.6005C26.804 18.5455 27.0726 18.58 27.3325 18.5929C27.518 18.6026 27.7024 18.6587 27.8868 18.662C28.9555 18.6824 30.0243 18.6921 31.0941 18.7072C31.292 18.696 31.4896 18.7331 31.67 18.8151C31.7463 18.8416 31.8265 18.8547 31.9073 18.8539C32.1176 18.8809 32.3386 18.8539 32.5241 18.9995C32.5705 19.0383 32.6643 19.0135 32.7334 19.0329C32.8233 19.0609 32.9115 19.094 32.9976 19.1322C33.0224 19.1419 33.045 19.1721 33.0666 19.1699C33.3125 19.1365 33.4872 19.3209 33.705 19.3791C33.8688 19.4425 34.0242 19.5259 34.1677 19.6272C34.1903 19.6401 34.2076 19.6638 34.2313 19.6725C34.7242 19.8558 35.1264 20.1783 35.5255 20.5147C35.7908 20.7401 36.0571 20.958 36.2124 21.2837C36.2788 21.3921 36.3577 21.4924 36.4475 21.5824C36.4529 21.5889 36.4659 21.5921 36.468 21.5986C36.5381 21.7938 36.6104 21.9879 36.6773 22.1842C36.6934 22.2338 36.6773 22.3039 36.7042 22.3416C36.8897 22.5875 36.8282 22.8733 36.8433 23.1462C36.8433 23.2454 36.8433 23.3446 36.8433 23.4427C36.8315 23.8838 36.6276 24.1976 36.2502 24.4317C35.9536 24.6161 35.6366 24.6409 35.3184 24.67C34.9953 24.6943 34.6709 24.6943 34.3478 24.67C34.0542 24.6464 33.7622 24.6061 33.4732 24.5492C33.4042 24.5374 33.347 24.4619 33.2812 24.4209C32.8768 24.1707 32.8833 24.1664 32.6341 23.8062C32.4972 23.6099 32.4185 23.3813 32.288 23.1893C32.1594 23.0143 32.0044 22.8605 31.8285 22.7331C31.6528 22.6128 31.4691 22.5047 31.2785 22.4096C31.2638 22.3994 31.2467 22.3931 31.2289 22.3912C30.8622 22.3912 30.5366 22.1928 30.1569 22.2025C29.1788 22.2252 28.1985 22.2025 27.2192 22.195C26.8526 22.195 26.4848 22.1421 26.1181 22.1475C25.769 22.1391 25.4199 22.1694 25.0774 22.2381C24.7422 22.3203 24.4407 22.5046 24.2147 22.7655C24.0888 22.9247 24.0231 23.1233 24.0292 23.3263C24.0238 23.3985 24.0292 23.4708 24.0292 23.5419C23.9925 23.9733 24.2578 24.2106 24.5792 24.4123C24.7443 24.5239 24.9181 24.622 25.099 24.7056C25.3061 24.7919 25.5304 24.8415 25.7461 24.9094C25.8205 24.9332 25.8927 24.9655 25.9672 24.9903C26.0416 25.0151 26.1365 25.041 26.2206 25.068L26.5948 25.1898C26.611 25.1898 26.6239 25.2114 26.6401 25.2146L27.601 25.4066C27.6899 25.4099 27.7775 25.4289 27.8598 25.4627C27.9968 25.5522 28.1456 25.5511 28.2912 25.5705C28.4368 25.5899 28.6007 25.6428 28.755 25.6784C28.7808 25.6848 28.8046 25.701 28.8304 25.7053C29.251 25.7797 29.6727 25.8498 30.0933 25.921C30.1775 25.9413 30.2604 25.9669 30.3414 25.9976C30.3672 26.0062 30.3899 26.031 30.4147 26.0299C30.7673 26.0245 31.079 26.2154 31.4241 26.2456C31.5665 26.2564 31.7153 26.2456 31.8231 26.3675C31.8291 26.3742 31.8364 26.3796 31.8446 26.3833C31.8528 26.387 31.8616 26.389 31.8706 26.3891C32.1941 26.347 32.4616 26.5778 32.7765 26.5853C32.8522 26.5992 32.9251 26.6254 32.9922 26.663C33.0407 26.6824 33.0849 26.7104 33.1345 26.7255C33.3502 26.7946 33.5713 26.8528 33.7816 26.9283C33.9153 26.9718 34.0423 27.0335 34.1591 27.1116C34.3855 27.2755 34.653 27.3607 34.8827 27.529C35.0628 27.6595 35.2656 27.7749 35.4478 27.9118C35.6973 28.0929 35.935 28.2896 36.1596 28.5007C36.3287 28.643 36.472 28.8134 36.5834 29.0043C36.6654 29.1736 36.7991 29.3063 36.8628 29.495C36.9373 29.679 37.0256 29.8571 37.127 30.0278C37.146 30.0585 37.1591 30.0925 37.1658 30.1281C37.2165 30.6425 37.416 31.1386 37.3437 31.667C37.3428 31.7117 37.3374 31.7561 37.3276 31.7997C37.2273 32.0995 37.2197 32.4144 37.1636 32.7217C37.1227 32.9687 36.9825 33.1962 36.9005 33.4378C36.8012 33.6888 36.6723 33.927 36.5166 34.1474C36.3921 34.3256 36.2559 34.4953 36.1089 34.6554C35.9612 34.7902 35.8199 34.9315 35.6689 35.062C35.5671 35.1509 35.459 35.2324 35.3454 35.3057C35.1807 35.4134 35.0104 35.5124 34.8353 35.6023C34.6562 35.6907 34.4654 35.7576 34.2799 35.8341C34.2249 35.8568 34.172 35.8816 34.1149 35.9075C34.0836 35.9237 34.0566 35.9539 34.0232 35.9614C33.7428 36.0304 33.4624 36.1048 33.1788 36.1598C33.0051 36.1933 32.8261 36.1749 32.6622 36.2817C32.5717 36.3198 32.473 36.3346 32.3753 36.3248C32.0175 36.336 31.6613 36.3786 31.3109 36.4521C31.0089 36.4959 30.7034 36.5111 30.3985 36.4974C29.8151 36.5028 29.2305 36.4974 28.6471 36.4974H28.6439Z" fill="#162C36"/>
<path d="M79.2133 27.5917C79.2133 28.077 79.2133 28.5623 79.2133 29.0465C79.1997 29.1882 79.1745 29.3285 79.1378 29.4661C79.1174 29.5804 79.0904 29.6936 79.0774 29.809C79.0505 30.0635 79.0882 30.3277 78.9362 30.5639C78.908 30.6397 78.8966 30.7206 78.9027 30.8012C78.8909 30.9338 78.9027 31.0686 78.7884 31.1743C78.7587 31.2191 78.743 31.2716 78.7431 31.3253C78.7248 31.4558 78.7334 31.5906 78.6169 31.6941C78.5792 31.7276 78.5932 31.8138 78.5727 31.8721C78.5404 31.9605 78.4983 32.0468 78.4649 32.1331C78.4509 32.1643 78.4315 32.1924 78.4185 32.2247C78.2643 32.6324 78.055 33.0171 77.7962 33.3679C77.678 33.5524 77.5468 33.7282 77.4037 33.8942C77.2009 34.0991 76.9982 34.3029 76.8008 34.5121C76.548 34.7916 76.2461 35.0222 75.91 35.1926C75.8389 35.3835 75.6091 35.3296 75.4873 35.473C75.3891 35.5884 75.1918 35.6165 75.043 35.6887C74.865 35.7772 74.6914 35.8753 74.5145 35.967C74.4824 35.9814 74.4488 35.9923 74.4142 35.9993C74.3883 36.0058 74.356 35.9993 74.3344 36.0123C74.081 36.1568 73.7682 36.132 73.5202 36.2927C73.5064 36.3039 73.4907 36.3127 73.4738 36.3185C73.1503 36.3832 72.8343 36.4523 72.5129 36.5073C72.3641 36.5321 72.2109 36.5127 72.0815 36.6205C72.0172 36.6516 71.9456 36.6646 71.8745 36.6582C71.6501 36.6701 71.4258 36.6744 71.2015 36.6841C71.043 36.6917 70.878 36.6582 70.7389 36.779C70.6986 36.7993 70.6529 36.8065 70.6084 36.7995H68.0395C68.0128 36.8039 67.9855 36.802 67.9597 36.7941C67.6167 36.6032 67.2393 36.7068 66.8812 36.6636C66.731 36.6616 66.5834 36.6246 66.4499 36.5558C66.355 36.4965 66.2083 36.5159 66.0832 36.5083C65.9408 36.4997 65.7952 36.5083 65.6755 36.4005C65.6573 36.3803 65.6324 36.3673 65.6054 36.3638C65.3002 36.3929 65.0511 36.188 64.7578 36.1632C64.6988 36.1508 64.6423 36.1286 64.5906 36.0975C64.5432 36.0759 64.4968 36.023 64.4536 36.0274C64.2153 36.0522 64.0632 35.8225 63.8357 35.8235C63.6092 35.6165 63.3116 35.5291 63.0506 35.3868C62.8155 35.2606 62.6192 35.0794 62.3809 34.9629C62.2067 34.8588 62.0493 34.729 61.9139 34.5779C61.7133 34.387 61.5181 34.1897 61.3315 33.9848C61.1838 33.8219 61.0544 33.6407 60.9131 33.4725C60.7298 33.2568 60.6338 32.9807 60.4494 32.764C60.3674 32.6658 60.3793 32.5278 60.2908 32.4113C60.1711 32.2528 60.1409 32.0263 60.0697 31.83C60.0444 31.7654 60.0152 31.7024 59.9824 31.6413C59.9705 31.6176 59.9328 31.5981 59.9339 31.5809C59.963 31.3027 59.7591 31.0859 59.7387 30.8174C59.7133 30.6513 59.6733 30.4878 59.619 30.3288C59.6125 30.3019 59.5995 30.277 59.5952 30.2512C59.5337 29.8198 59.4335 29.3884 59.4194 28.9516C59.3914 28.0727 59.4043 27.1916 59.413 26.3116C59.432 26.1165 59.4626 25.9228 59.5046 25.7314C59.5327 25.5157 59.5413 25.3 59.5758 25.0843C59.6006 24.929 59.6535 24.778 59.6901 24.6238C59.712 24.5368 59.7285 24.4486 59.7397 24.3596C59.7351 24.2171 59.7726 24.0764 59.8476 23.9552C59.8875 23.9045 59.8789 23.8182 59.9004 23.7503C59.9295 23.6607 59.9662 23.5734 60.0007 23.486C60.0147 23.4526 60.0482 23.4192 60.0449 23.389C60.0201 23.1517 60.211 22.9899 60.2606 22.7732C60.2984 22.6006 60.4698 22.4615 60.5313 22.289C60.6222 22.0686 60.7446 21.8626 60.8948 21.6775C60.9961 21.5394 61.1018 21.4025 61.2183 21.273C61.4005 21.0628 61.5418 20.819 61.7769 20.6529C62.1479 20.3876 62.4682 20.0566 62.878 19.8376C63.0937 19.7212 63.3094 19.5917 63.5251 19.4828C63.6491 19.4224 63.8044 19.3998 63.8929 19.3178C64.0115 19.21 64.1765 19.2369 64.2692 19.1571C64.4785 18.9759 64.7869 19.0849 64.9767 18.88C65.0004 18.8541 65.0651 18.8703 65.1072 18.8584C65.2431 18.8217 65.3768 18.7797 65.5105 18.7398C65.5355 18.7296 65.5615 18.7224 65.5882 18.7182C66.053 18.6869 66.4854 18.4723 66.961 18.4928C67.1174 18.4993 67.2749 18.4313 67.4334 18.4162C67.7807 18.3839 68.129 18.3461 68.4763 18.3429C69.2484 18.3353 70.0217 18.3429 70.7939 18.3537C70.9274 18.3636 71.06 18.383 71.1907 18.4119C71.3924 18.4421 71.5941 18.4799 71.7979 18.5014C72.0459 18.5273 72.3005 18.5014 72.5291 18.6427C72.605 18.6701 72.6857 18.6819 72.7663 18.6772C72.9335 18.6966 73.105 18.6912 73.2517 18.8034C73.3077 18.8321 73.3699 18.8465 73.4328 18.8455C73.5827 18.867 73.7359 18.867 73.8642 18.9824C73.8966 19.0137 73.9656 19.0051 74.0163 19.0212C74.0972 19.0493 74.1759 19.0827 74.2546 19.114C74.2932 19.1365 74.3341 19.1549 74.3765 19.169C74.5122 19.191 74.642 19.2402 74.7583 19.3135C74.8956 19.3855 75.0367 19.4499 75.181 19.5065C75.4409 19.636 75.6825 19.7945 75.9359 19.9379C76.2364 20.1291 76.5216 20.3432 76.789 20.5785C77.0241 20.7651 77.2732 20.9743 77.422 21.2677C77.5083 21.4381 77.669 21.5696 77.7833 21.7282C77.9046 21.8826 78.007 22.051 78.0885 22.2296C78.1252 22.326 78.1777 22.4157 78.2438 22.4949C78.3948 22.6643 78.4013 22.8961 78.522 23.0859C78.6136 23.2446 78.6795 23.4168 78.7172 23.596C78.7604 23.7751 78.7474 23.9692 78.8844 24.118C78.8564 24.489 79.1087 24.8071 79.0774 25.1868C79.0624 25.3733 79.1659 25.5664 79.1853 25.7594C79.2155 26.0441 79.2263 26.3321 79.2327 26.6222C79.2403 26.9457 79.2327 27.2692 79.2327 27.5928L79.2133 27.5917ZM74.5264 27.5464C74.5264 27.1517 74.5264 26.7559 74.5264 26.3601C74.5264 26.1552 74.5361 25.946 74.4056 25.7637C74.3844 25.7144 74.3741 25.661 74.3754 25.6073C74.3495 25.4014 74.4078 25.176 74.2244 25.0045C74.205 24.9862 74.2061 24.9344 74.2093 24.8966C74.2363 24.6421 74.0616 24.4491 73.985 24.2312C73.8836 23.9444 73.6863 23.692 73.5191 23.43C73.435 23.2995 73.3131 23.1938 73.2279 23.0633C73.0856 22.8476 72.8548 22.7322 72.665 22.5726C72.5023 22.4215 72.3103 22.3055 72.1009 22.2318C71.8853 22.1714 71.7073 21.987 71.4614 22.0237C71.4478 22.0252 71.4341 22.0235 71.4213 22.0186C71.4086 22.0137 71.3972 22.0058 71.3881 21.9956C71.304 21.8673 71.1724 21.8964 71.0495 21.8802C70.8996 21.8608 70.7507 21.8371 70.6019 21.809C70.4839 21.7727 70.363 21.7463 70.2406 21.7303C69.6388 21.7217 69.0371 21.7238 68.4353 21.7303C68.3277 21.724 68.22 21.7421 68.1204 21.7832C67.9731 21.8489 67.8136 21.8828 67.6523 21.8824C67.5445 21.8888 67.4043 21.8716 67.3396 21.932C67.153 22.1056 66.8909 22.0398 66.686 22.1887C66.5049 22.3213 66.2708 22.3914 66.0756 22.5305C65.7273 22.7775 65.3919 23.032 65.1536 23.3933C65.0274 23.5842 64.8645 23.7654 64.7955 23.9757C64.733 24.1644 64.5453 24.3057 64.5798 24.5289C64.3641 24.7079 64.4817 25.0271 64.293 25.218C64.2692 25.5416 64.2606 25.8651 64.1204 26.1628C64.1149 26.1894 64.1149 26.217 64.1204 26.2436C64.1204 27.1409 64.1204 28.0393 64.1204 28.9398C64.1274 29.028 64.1444 29.1152 64.1711 29.1997C64.1991 29.3075 64.2401 29.4154 64.2595 29.5286C64.2789 29.6418 64.2455 29.8004 64.3016 29.8996C64.3886 30.0548 64.4392 30.2277 64.4493 30.4054C64.4493 30.4453 64.4957 30.4787 64.5151 30.5186C64.5453 30.5823 64.5723 30.648 64.5971 30.7138C64.6507 30.8941 64.7196 31.0694 64.8031 31.2379C64.9426 31.4634 65.101 31.6766 65.2765 31.8753C65.4652 32.091 65.6852 32.2851 65.8901 32.4879C66.0196 32.6162 66.1964 32.6345 66.3215 32.7726C66.4258 32.8636 66.5517 32.9264 66.6871 32.9548C66.9406 33.0196 67.1573 33.2148 67.442 33.1705C67.4938 33.1641 67.5499 33.2212 67.6103 33.2449C67.6649 33.273 67.7234 33.2926 67.7839 33.3032C68.2034 33.3323 68.624 33.3765 69.0446 33.3776C69.5364 33.3776 70.0292 33.3431 70.5221 33.3215C70.7378 33.3118 70.9535 33.3452 71.1347 33.1867C71.1664 33.1658 71.2051 33.1581 71.2425 33.1651C71.5175 33.204 71.717 32.9743 71.978 32.9624C72.2724 32.7294 72.6402 32.6238 72.9152 32.338C73.1489 32.1193 73.3653 31.8828 73.5622 31.6305C73.6654 31.5124 73.7541 31.3825 73.8265 31.2433C73.8825 31.0978 73.985 30.9716 74.0217 30.8281C74.0831 30.5909 74.2643 30.387 74.2287 30.1228C74.2305 30.1046 74.239 30.0877 74.2525 30.0754C74.3732 29.9557 74.3603 29.7993 74.3754 29.644C74.3756 29.5185 74.3964 29.3939 74.4369 29.2752C74.5154 29.075 74.5493 28.86 74.5361 28.6453C74.5264 28.283 74.5264 27.9152 74.5264 27.5464Z" fill="#162C36"/>
<path d="M106.664 25.7386C106.842 25.7516 106.987 25.7699 107.125 25.7699C110.009 25.7699 112.894 25.7764 115.778 25.7634C116.034 25.7673 116.286 25.8281 116.515 25.9414C116.673 26.0136 116.781 26.1948 116.909 26.3285C117.076 26.5054 117.077 26.7254 117.074 26.9497C117.074 27.3897 117.074 27.8298 117.074 28.2708C117.074 28.6397 116.865 28.9039 116.581 29.0937C116.274 29.2975 116.258 29.2792 115.862 29.2792H106.685V32.8187C106.823 32.841 106.961 32.8557 107.101 32.8629C109.266 32.8629 111.431 32.8629 113.596 32.8629C114.809 32.8629 116.023 32.8629 117.236 32.8629C117.577 32.8477 117.911 32.9635 118.17 33.1864C118.291 33.2995 118.383 33.4406 118.437 33.5973C118.622 34.143 118.545 34.7006 118.545 35.2506C118.545 35.6302 118.329 35.9322 118.046 36.1802C117.792 36.3959 117.476 36.3765 117.183 36.4336C117.093 36.4418 117.003 36.4418 116.913 36.4336C112.492 36.4336 108.071 36.4336 103.648 36.4336C103.335 36.4285 103.023 36.3923 102.717 36.3258C102.574 36.2914 102.447 36.2092 102.356 36.0929C102.249 35.9565 102.16 35.8072 102.09 35.6485C101.955 35.3164 101.97 34.982 101.97 34.6434C101.97 29.845 101.969 25.047 101.965 20.2493C101.95 19.9196 102.014 19.591 102.151 19.2906C102.24 19.1194 102.378 18.9784 102.547 18.8851C102.924 18.6877 102.933 18.706 103.387 18.706C108.025 18.706 112.662 18.7032 117.3 18.6974C117.555 18.6936 117.808 18.76 118.029 18.8894C118.212 19.0063 118.361 19.1706 118.46 19.365C118.612 19.6475 118.589 19.9269 118.597 20.2148C118.603 20.4758 118.584 20.7368 118.597 20.9967C118.623 21.3806 118.452 21.6642 118.19 21.9198C117.994 22.1118 117.785 22.2434 117.495 22.2229C117.361 22.2121 117.226 22.2229 117.091 22.2229H107.138C106.667 22.2229 106.667 22.2229 106.667 22.7028V25.7332L106.664 25.7386Z" fill="#162C36"/>
<path d="M86.4489 32.4715V32.8317C86.4489 33.6039 86.4489 34.3771 86.4489 35.1493C86.4546 35.4995 86.3221 35.8377 86.0801 36.0908C85.947 36.2323 85.7719 36.3272 85.5807 36.3615C84.732 36.5125 83.879 36.4176 83.0281 36.4338C82.8132 36.4379 82.5999 36.3975 82.4015 36.3151C82.2115 36.2183 82.0488 36.0756 81.928 35.8999C81.7771 35.6982 81.7522 35.4826 81.7522 35.2464C81.7566 30.1417 81.754 25.0388 81.7447 19.9377C81.7386 19.7364 81.7833 19.5369 81.8747 19.3574C81.9661 19.178 82.1013 19.0244 82.2677 18.9111C82.428 18.783 82.6256 18.7106 82.8307 18.7051C86.271 18.7051 89.7123 18.7051 93.1526 18.7126C93.3394 18.7277 93.5253 18.754 93.709 18.7914C93.9398 18.8205 94.1717 18.8442 94.4036 18.8658C94.5718 18.8819 94.7433 18.8658 94.891 18.9844C94.9467 19.0123 95.0089 19.025 95.0711 19.0211C95.2394 19.0351 95.4119 19.0211 95.5532 19.1526C95.5909 19.1882 95.6707 19.1839 95.7322 19.1915C95.8465 19.2055 95.9695 19.1915 96.045 19.309C96.0536 19.323 96.0741 19.3403 96.087 19.3392C96.3092 19.3058 96.4461 19.4977 96.6381 19.5549C96.8538 19.6196 97.0436 19.7878 97.2463 19.9065C97.6842 20.1631 98.0077 20.5535 98.3701 20.8933C98.534 21.0475 98.616 21.2847 98.7616 21.4638C98.9451 21.7126 99.0935 21.9855 99.2027 22.2748C99.2997 22.4991 99.4561 22.7299 99.4334 23.0027C99.4262 23.048 99.4366 23.0943 99.4626 23.1321C99.6092 23.2863 99.5704 23.4837 99.5963 23.666C99.6146 23.7792 99.6535 23.8881 99.6707 24.0014C99.7125 24.2302 99.7396 24.4614 99.7516 24.6937C99.7581 25.3847 99.7534 26.0759 99.7376 26.7676C99.7175 26.9255 99.6854 27.0816 99.6416 27.2346C99.6168 27.3845 99.6103 27.5365 99.5823 27.6854C99.5575 27.8148 99.5143 27.9399 99.4744 28.066C99.4534 28.1237 99.4368 28.1828 99.4248 28.2429C99.4086 28.368 99.4119 28.4963 99.303 28.588C99.2831 28.6062 99.2708 28.6313 99.2684 28.6581C99.2339 29.0011 99.0247 29.275 98.8759 29.5629C98.6534 29.9826 98.3499 30.3539 97.9829 30.6554C97.7672 30.8344 97.5861 31.0534 97.3639 31.2205C97.1408 31.3726 96.9089 31.5112 96.6694 31.6357C96.4537 31.7576 96.2046 31.7835 96.0061 31.9388C95.963 31.9733 95.8843 31.9593 95.8239 31.9765C95.7322 32.0035 95.6416 32.038 95.5521 32.0703C95.5359 32.0768 95.5241 32.0973 95.5079 32.1005C95.207 32.1685 94.9083 32.2526 94.6031 32.2968C94.3475 32.3335 94.0865 32.3173 93.8406 32.4316C93.746 32.4601 93.6465 32.4689 93.5483 32.4575L86.8102 32.4704L86.4489 32.4715ZM86.519 22.2262C86.4392 22.4883 86.4241 28.6419 86.5017 28.9461H88.5616L91.9048 28.9342C91.9847 28.9471 92.0665 28.9385 92.142 28.9094C92.3362 28.7789 92.554 28.8015 92.7643 28.7746C92.8355 28.7649 92.9282 28.7746 92.9724 28.7347C93.1655 28.56 93.4491 28.6268 93.6497 28.4543C93.7802 28.341 93.9884 28.3206 94.1307 28.2159C94.3713 28.0375 94.564 27.8022 94.6915 27.5311C94.7853 27.3316 94.9406 27.1397 94.9201 26.8927C94.9201 26.8539 94.9546 26.8129 94.9687 26.7708C95.0035 26.6814 95.0302 26.589 95.0485 26.4947C95.0672 26.3518 95.073 26.2074 95.0657 26.0634C95.0323 25.4616 95.1811 24.8447 94.9093 24.2645C94.9007 23.9323 94.7088 23.6735 94.5308 23.4255C94.3939 23.211 94.207 23.033 93.9862 22.9067C93.6767 22.7579 93.3909 22.5206 93.0156 22.525C92.9883 22.5271 92.9612 22.5194 92.939 22.5034C92.8128 22.3438 92.6306 22.3955 92.4677 22.3751C92.3049 22.3546 92.1313 22.3254 91.963 22.2996C91.8078 22.2648 91.6503 22.241 91.4917 22.2284C89.9194 22.2284 88.3481 22.2284 86.7757 22.2284L86.519 22.2262Z" fill="#162C36"/>
<path d="M49.2329 36.5005C48.3701 36.5005 47.5074 36.5005 46.6446 36.5005C46.519 36.5073 46.393 36.4942 46.2715 36.4617C45.9964 36.3785 45.7101 36.3381 45.4227 36.342C45.2513 36.3557 45.08 36.3149 44.9331 36.2255C44.8855 36.2011 44.8325 36.1888 44.7789 36.1899C44.5923 36.1727 44.4036 36.177 44.2397 36.0476C44.1976 36.0141 44.1156 36.0325 44.0563 36.0152C43.9485 35.9839 43.8406 35.9451 43.7328 35.9074C43.7021 35.8911 43.67 35.8778 43.6368 35.8675C43.3456 35.82 43.1073 35.641 42.8388 35.5439C42.4559 35.408 42.1518 35.1449 41.7937 34.9734C41.6519 34.8862 41.5224 34.7803 41.4087 34.6585C41.2114 34.4838 41.014 34.3102 40.8264 34.1268C40.7185 34.0244 40.642 33.8982 40.5438 33.7893C40.3012 33.5251 40.1308 33.2102 39.9291 32.9179C39.8331 32.7518 39.7512 32.5779 39.6843 32.3981C39.5991 32.2158 39.5085 32.0368 39.4244 31.8589C39.3996 31.8039 39.3877 31.7424 39.3672 31.6841C39.3327 31.586 39.296 31.4889 39.2594 31.3919C39.2411 31.3612 39.227 31.3282 39.2173 31.2937C39.1925 31.0781 39.1936 30.8494 39.0502 30.6607C39.0038 30.1031 38.8 29.5661 38.8463 28.9945C38.8571 28.85 38.7935 28.7011 38.7665 28.5534C38.7495 28.475 38.7394 28.3952 38.7363 28.3151C38.7363 27.7942 38.7363 27.2722 38.7363 26.7513C38.7459 26.655 38.7654 26.5599 38.7946 26.4677C38.8186 26.393 38.8367 26.3166 38.8485 26.239C38.8614 26.005 38.8668 25.7721 38.8711 25.538C38.8712 25.3863 38.9047 25.2364 38.9693 25.0991C39.0125 24.9725 39.0326 24.8392 39.0286 24.7055C39.0405 24.5534 39.0286 24.3992 39.1461 24.2741C39.1594 24.2623 39.1682 24.2463 39.1709 24.2288C39.1386 23.9398 39.3208 23.7068 39.3866 23.4426C39.4299 23.2304 39.5154 23.0291 39.6379 22.8505C39.7213 22.718 39.7935 22.5788 39.8536 22.4343C39.9842 22.1596 40.1433 21.8993 40.3281 21.6578C40.4597 21.4917 40.5611 21.2965 40.7174 21.1466C41.0065 20.8683 41.2502 20.5405 41.6147 20.3464C41.6966 20.2972 41.7745 20.2416 41.8477 20.1803C42.1006 19.9723 42.383 19.8029 42.6856 19.6777C42.8681 19.5964 43.0463 19.5057 43.2195 19.406C43.2734 19.379 43.3392 19.379 43.3963 19.3574C43.4535 19.3359 43.5182 19.2981 43.5797 19.269C43.6254 19.2458 43.6726 19.2256 43.7209 19.2086C43.7544 19.1978 43.7932 19.2086 43.8288 19.1935C43.984 19.1329 44.1428 19.0822 44.3044 19.0415C44.4608 19.0113 44.6182 19.0177 44.767 18.9271C44.8512 18.8764 44.9741 18.8905 45.0787 18.8711C45.2879 18.8312 45.4961 18.7837 45.7064 18.7481C45.8563 18.7227 46.0075 18.7057 46.1593 18.6974C46.4106 18.6834 46.663 18.6877 46.9142 18.6705C47.1181 18.6564 47.3208 18.6198 47.5236 18.5961C47.5951 18.587 47.6671 18.5824 47.7393 18.582C48.7724 18.582 49.8059 18.582 50.8398 18.582C50.936 18.5922 51.0313 18.6102 51.1245 18.636C51.2028 18.6522 51.2821 18.6637 51.3618 18.6705C51.6044 18.6845 51.8471 18.6845 52.0887 18.7061C52.2198 18.7268 52.3495 18.756 52.4769 18.7934C52.5912 18.8182 52.7044 18.8441 52.8198 18.8603C52.9773 18.8818 53.1434 18.8732 53.276 18.9843C53.3316 19.0133 53.3935 19.0281 53.4561 19.0274C53.564 19.0415 53.6718 19.0382 53.7495 19.1353C53.768 19.1554 53.7934 19.1677 53.8206 19.1698C54.0579 19.1439 54.2121 19.3661 54.4364 19.3725C54.5443 19.5494 54.76 19.5483 54.9228 19.6465C55.1331 19.777 55.3618 19.8891 55.5699 20.0315C55.9149 20.2634 56.2396 20.5243 56.5405 20.8112C56.7864 21.0495 56.9352 21.3504 57.1617 21.5985C57.2771 21.7257 57.2836 21.9468 57.3925 22.0848C57.551 22.2876 57.4852 22.5658 57.661 22.7567C57.6966 22.7955 57.6934 22.8743 57.6998 22.9357C57.7279 23.2 57.7246 23.4609 57.8077 23.7262C57.8541 23.8394 57.8724 23.962 57.861 24.0838C57.8495 24.2055 57.8086 24.3226 57.7419 24.4251C57.7208 24.4644 57.7111 24.5089 57.7139 24.5534C57.7139 24.8888 57.4701 25.0527 57.2372 25.2242C57.0042 25.3957 56.7238 25.4324 56.437 25.428C55.8805 25.4183 55.3229 25.4043 54.7664 25.4205C54.5044 25.4291 54.306 25.3062 54.1194 25.1789C53.8472 25.0031 53.6266 24.7582 53.4799 24.4693C53.3534 24.2585 53.2421 24.039 53.1466 23.8125C53.1175 23.7262 53.0291 23.6572 52.9773 23.5645C52.8065 23.2552 52.5675 22.989 52.2785 22.7858C52.038 22.6219 51.8115 22.376 51.4761 22.376C51.1968 22.1733 50.8657 22.2229 50.5519 22.197C50.238 22.1711 49.9253 22.1636 49.6125 22.1549C49.3602 22.1485 49.1089 22.1474 48.8576 22.1549C48.1027 22.1776 47.3478 22.2056 46.5982 22.2326C46.5447 22.226 46.4903 22.2323 46.4397 22.2509C46.2596 22.3728 46.0504 22.3588 45.8552 22.4095C45.6505 22.4785 45.4539 22.5692 45.2685 22.6801C45.1497 22.7358 45.0344 22.7988 44.9234 22.8689C44.5393 23.1131 44.2401 23.4702 44.0671 23.8913C43.9819 24.1069 43.8784 24.3226 43.7889 24.5383C43.7673 24.5973 43.7542 24.659 43.7501 24.7217C43.7487 24.8825 43.7091 25.0407 43.6347 25.1832C43.5979 25.2746 43.5817 25.3729 43.5872 25.4712C43.5592 25.8282 43.5797 26.1959 43.5009 26.541C43.3931 26.9972 43.4341 27.4501 43.4341 27.9031C43.4341 28.1964 43.4912 28.4887 43.5182 28.782C43.5451 29.0754 43.5602 29.3903 43.5926 29.6933C43.6124 29.8036 43.642 29.9118 43.681 30.0169C43.6907 30.0514 43.7231 30.0848 43.7199 30.1161C43.6907 30.4116 43.8547 30.6618 43.9183 30.9346C43.9665 31.111 44.0391 31.2798 44.134 31.4361C44.2192 31.586 44.3346 31.7197 44.4338 31.861C44.5862 32.0445 44.7708 32.1987 44.9784 32.3161C45.1423 32.4013 45.2966 32.5048 45.4594 32.5954C45.5084 32.6159 45.5599 32.6297 45.6125 32.6364C45.6654 32.6483 45.7301 32.6364 45.77 32.6677C46.004 32.8349 46.2909 32.7755 46.54 32.8607C47.1731 33.0689 47.8191 32.9686 48.4597 32.9826C49.2415 32.9999 50.0234 32.9826 50.8053 32.9826C51.0272 32.9922 51.2483 32.9516 51.4524 32.864C51.64 32.7766 51.8546 32.7486 52.0477 32.6483C52.3352 32.4985 52.5987 32.3065 52.8295 32.0789C53.0037 31.9062 53.1536 31.7107 53.275 31.4976C53.3541 31.3718 53.4243 31.2406 53.4853 31.105C53.6369 30.697 53.8904 30.3346 54.2218 30.0524C54.3872 29.9105 54.5844 29.8106 54.7966 29.7613C55.4437 29.6146 56.1016 29.6912 56.753 29.6804C57.0744 29.6843 57.3847 29.7985 57.6319 30.0039C57.7252 30.0805 57.7945 30.1823 57.8314 30.2973C57.8886 30.4914 58.0471 30.6467 58.0352 30.8656C58.0223 31.1978 58.0255 31.531 58.0137 31.8621C58.0058 31.9328 57.9872 32.0019 57.9587 32.067C57.9447 32.1091 57.895 32.1479 57.8994 32.1845C57.9274 32.4747 57.7538 32.7108 57.6912 32.9751C57.6489 33.1331 57.5804 33.283 57.4885 33.4183C57.3493 33.634 57.1951 33.841 57.0355 34.0416C56.8524 34.2778 56.6409 34.4904 56.4057 34.6747C56.0869 34.9204 55.7557 35.1497 55.4135 35.3617C55.1493 35.5267 54.8667 35.6528 54.595 35.793C54.3944 35.8955 54.1852 36.054 53.9274 36.0271C53.6923 36.2244 53.3526 36.1198 53.1099 36.3085C53.0549 36.3506 52.9536 36.3366 52.8738 36.3409C52.6308 36.3385 52.3896 36.3824 52.1631 36.4703C52.0776 36.4985 51.9873 36.5088 51.8978 36.5005H49.2329Z" fill="#162C36"/>
<path d="M6.37629 27.3412C6.21237 27.1104 6.07433 26.8527 5.87589 26.6542C5.58363 26.362 5.40569 25.9823 5.09509 25.7041C4.96999 25.5963 4.89881 25.4226 4.7942 25.2846C4.65616 25.1034 4.50841 24.9298 4.36282 24.7454C4.1989 24.5383 4.03929 24.328 3.87428 24.1199C3.58526 23.7521 3.28869 23.3908 3.00505 23.0177C2.72142 22.6445 2.45936 22.2908 2.16817 21.9511C1.85434 21.5855 1.61061 21.1617 1.24718 20.8317C1.09511 20.6925 1.00668 20.4768 0.861091 20.314C0.7155 20.1512 0.625988 19.9808 0.49226 19.8287C0.281962 19.5904 0.324022 19.3154 0.347748 19.0404C0.354266 18.9987 0.365109 18.9579 0.380101 18.9185C0.62491 18.7028 0.911778 18.6963 1.21159 18.7028C2.08405 18.7125 2.95544 18.7028 3.82683 18.7028C3.96919 18.7028 4.11586 18.6888 4.23449 18.7988C4.26525 18.8171 4.30009 18.8275 4.33586 18.829C4.76724 18.9163 5.1048 19.159 5.42294 19.4663C5.72849 19.7765 6.00803 20.1112 6.25874 20.4671C6.37845 20.6289 6.52728 20.7691 6.65022 20.9276C6.91768 21.2749 7.17219 21.6308 7.44072 21.977C7.55935 22.129 7.72544 22.2509 7.82034 22.4148C8.04466 22.802 8.40702 23.0781 8.63241 23.4652C8.76647 23.6649 8.92237 23.849 9.09723 24.0142C9.12419 24.0433 9.23635 24.0498 9.25145 24.0282C9.41321 23.7899 9.64616 23.6108 9.79067 23.3552C9.89817 23.1899 10.0186 23.0334 10.1509 22.8872C10.3073 22.6909 10.4615 22.4946 10.6189 22.3005C10.9241 21.9241 11.2326 21.551 11.5367 21.1735C11.6284 21.0592 11.7049 20.932 11.7944 20.8155C12.0738 20.452 12.3337 20.0778 12.6421 19.737C12.8537 19.4851 13.1024 19.2669 13.3798 19.09C13.5534 18.9821 13.7378 18.8268 13.9751 18.8473C14.442 18.6154 14.9457 18.7244 15.4288 18.7136C16.1028 18.6985 16.7769 18.719 17.4509 18.7039C17.6666 18.7039 17.7874 18.8505 17.9556 18.9196C17.9891 18.9336 18.0074 19.0145 18.0085 19.0652C18.0274 19.2345 18.0242 19.4057 17.9988 19.5742C17.9511 19.7209 17.8744 19.8566 17.7734 19.9732C17.5221 20.2967 17.2643 20.6149 16.9958 20.9244C16.6669 21.3029 16.3886 21.7203 16.0629 22.1032C15.8131 22.3743 15.5825 22.6626 15.3727 22.9659C15.101 23.3973 14.7354 23.7489 14.4539 24.1705C14.1908 24.5663 13.8467 24.9071 13.5437 25.277C13.4013 25.4507 13.2892 25.6502 13.1371 25.8163C12.8492 26.1269 12.6626 26.514 12.3412 26.802C12.1859 26.9411 12.0996 27.1568 11.9724 27.352C12.2776 27.7273 12.5946 28.1069 12.8945 28.4908C13.163 28.837 13.4024 29.2048 13.6731 29.5499C13.9675 29.9241 14.2867 30.28 14.5887 30.6488C14.6814 30.7631 14.7494 30.8968 14.8367 31.0155C14.9521 31.1708 15.0751 31.3218 15.1969 31.4717C15.2724 31.5644 15.3566 31.6507 15.4299 31.7445C15.5787 31.9332 15.7275 32.122 15.8677 32.3172C16.1309 32.6882 16.4523 33.0128 16.6982 33.3956C16.8427 33.6232 17.0497 33.8087 17.2083 34.0287C17.4293 34.3349 17.7184 34.5884 17.892 34.9356C17.9778 35.0898 18.0946 35.2246 18.2349 35.3314C18.2709 35.3635 18.2992 35.4032 18.3179 35.4476C18.3365 35.492 18.3451 35.54 18.3428 35.5881C18.3514 35.7224 18.3514 35.8571 18.3428 35.9915C18.3309 36.1964 18.2015 36.301 18.002 36.3592C17.5868 36.48 17.1662 36.4336 16.7467 36.4412C16.3789 36.4466 16.0079 36.4218 15.6423 36.4476C15.198 36.4789 14.7677 36.3894 14.3385 36.3215C14.0964 36.2652 13.8704 36.1545 13.6774 35.9979C13.479 35.8513 13.2665 35.7197 13.1123 35.5083C12.8546 35.1535 12.5644 34.8224 12.2905 34.4784C12.1643 34.3199 12.05 34.1548 11.9238 33.9942C11.7686 33.799 11.61 33.607 11.4461 33.4193C11.1668 33.0958 10.9069 32.755 10.6621 32.4153C10.4173 32.0756 10.098 31.7682 9.8845 31.3843C9.74322 31.1319 9.50704 30.9314 9.3086 30.7114C9.17919 30.569 9.03683 30.5755 8.96026 30.7459C8.86212 30.9669 8.66045 31.1007 8.54075 31.3002C8.45626 31.4195 8.36517 31.534 8.2679 31.6431C8.13956 31.8081 8.03603 32.0012 7.88073 32.1328C7.72544 32.2643 7.72004 32.4336 7.57985 32.5501C7.25631 32.8197 7.10209 33.2339 6.78179 33.5207C6.6461 33.6665 6.52475 33.8251 6.41943 33.9942C6.2857 34.1699 6.15413 34.3468 6.01825 34.5204C5.7454 34.8742 5.47902 35.229 5.19215 35.5762C5.10758 35.661 5.01514 35.7376 4.91607 35.8049C4.66296 35.9986 4.39002 36.1649 4.10184 36.301C4.07866 36.315 4.05305 36.3245 4.02635 36.329C3.68879 36.3668 3.35124 36.4271 3.0126 36.4368C2.32131 36.4541 1.62895 36.4498 0.936582 36.4368C0.705111 36.4329 0.475328 36.3966 0.253922 36.329C0.188822 36.3156 0.129601 36.282 0.0846815 36.2331C0.0397623 36.1841 0.0114325 36.1222 0.00372146 36.0562C-0.00495069 35.8597 0.00153925 35.6628 0.0231336 35.4673C0.0556871 35.3713 0.111221 35.2846 0.184901 35.215C0.438338 34.9033 0.696088 34.5959 0.950602 34.2853C1.02852 34.2012 1.09621 34.1082 1.15227 34.0082C1.25257 33.7925 1.44777 33.6631 1.57179 33.469C1.81983 33.0829 2.17249 32.7755 2.39681 32.3679C2.48586 32.2392 2.58736 32.1196 2.69985 32.0109C2.8077 31.8879 2.91554 31.7639 3.0126 31.6367C3.15064 31.462 3.28689 31.2854 3.42134 31.1071C3.68987 30.7534 3.95517 30.3964 4.22694 30.0438C4.32939 29.9101 4.44263 29.7882 4.55047 29.6566C4.65832 29.5251 4.76616 29.3482 4.89666 29.2091C5.22019 28.8521 5.465 28.425 5.80364 28.0745C5.95808 27.9002 6.10212 27.7169 6.23502 27.5256C6.2857 27.4663 6.32992 27.4048 6.37629 27.3412Z" fill="#162C36"/>
</svg>
