<svg width="20" height="16" viewBox="0 0 20 16" fill="none" xmlns="http://www.w3.org/2000/svg">
<path fill-rule="evenodd" clip-rule="evenodd" d="M13.3333 4.66667H11.6667V7.16667H9.16667V8.83333H11.6667V11.3333H13.3333V8.83333H15.8333V7.16667H13.3333V4.66667ZM1.66667 8C1.66667 5.675 3.03333 3.66666 5.00833 2.73333V0.93333C2.1 1.96666 0 4.74166 0 8C0 11.2583 2.1 14.0333 5.00833 15.0667V13.2667C3.03333 12.3333 1.66667 10.325 1.66667 8ZM12.5 0.5C8.36667 0.5 5 3.86667 5 8C5 12.1333 8.36667 15.5 12.5 15.5C16.6333 15.5 20 12.1333 20 8C20 3.86667 16.6333 0.5 12.5 0.5ZM12.5 13.8333C9.28333 13.8333 6.66667 11.2167 6.66667 8C6.66667 4.78333 9.28333 2.16667 12.5 2.16667C15.7167 2.16667 18.3333 4.78333 18.3333 8C18.3333 11.2167 15.7167 13.8333 12.5 13.8333Z" fill="#3B5D6E"/>
</svg>
